%FSLAX25Y25*%
%MOIN*%
G70*
G01*
G75*
%ADD10R,0.03000X0.03000*%
%ADD11R,0.10039X0.08858*%
%ADD12R,0.03000X0.03000*%
%ADD13R,0.01102X0.07087*%
%ADD14R,0.01201X0.05701*%
%ADD15R,0.01673X0.01969*%
%ADD16R,0.00984X0.01969*%
%ADD17R,0.00984X0.04331*%
%ADD18R,0.06693X0.05906*%
%ADD19R,0.01575X0.01969*%
%ADD20C,0.01600*%
%ADD21C,0.01000*%
%ADD22C,0.00800*%
%ADD23C,0.01200*%
%ADD24C,0.03150*%
%ADD25C,0.07087*%
%ADD26R,0.07087X0.07087*%
%ADD27C,0.07087*%
%ADD28R,0.07087X0.07087*%
%ADD29R,0.25000X0.25000*%
%ADD30C,0.06000*%
%ADD31R,0.06000X0.06000*%
%ADD32O,0.04331X0.07087*%
%ADD33C,0.02047*%
%ADD34C,0.02000*%
%ADD35C,0.01800*%
%ADD36C,0.04000*%
%ADD37C,0.05600*%
G04:AMPARAMS|DCode=38|XSize=90.157mil|YSize=90.157mil|CornerRadius=0mil|HoleSize=0mil|Usage=FLASHONLY|Rotation=0.000|XOffset=0mil|YOffset=0mil|HoleType=Round|Shape=Relief|Width=10mil|Gap=15mil|Entries=4|*
%AMTHD38*
7,0,0,0.09016,0.06016,0.01000,45*
%
%ADD38THD38*%
%ADD39C,0.05616*%
%ADD40C,0.05616*%
%ADD41C,0.14100*%
G04:AMPARAMS|DCode=42|XSize=80mil|YSize=80mil|CornerRadius=0mil|HoleSize=0mil|Usage=FLASHONLY|Rotation=0.000|XOffset=0mil|YOffset=0mil|HoleType=Round|Shape=Relief|Width=10mil|Gap=15mil|Entries=4|*
%AMTHD42*
7,0,0,0.08000,0.05000,0.01000,45*
%
%ADD42THD42*%
%ADD43C,0.04600*%
%ADD44C,0.03962*%
G04:AMPARAMS|DCode=45|XSize=73.622mil|YSize=73.622mil|CornerRadius=0mil|HoleSize=0mil|Usage=FLASHONLY|Rotation=0.000|XOffset=0mil|YOffset=0mil|HoleType=Round|Shape=Relief|Width=10mil|Gap=15mil|Entries=4|*
%AMTHD45*
7,0,0,0.07362,0.04362,0.01000,45*
%
%ADD45THD45*%
%ADD46C,0.02387*%
%ADD47C,0.02191*%
%ADD48C,0.00984*%
%ADD49C,0.02362*%
%ADD50C,0.00900*%
%ADD51C,0.00787*%
%ADD52C,0.00394*%
%ADD53C,0.00700*%
%ADD54C,0.01181*%
G36*
X178513Y327362D02*
X178573D01*
X178713Y327347D01*
X178869Y327325D01*
X179039Y327295D01*
X179209Y327251D01*
X179379Y327192D01*
X179387D01*
X179401Y327184D01*
X179424Y327177D01*
X179453Y327162D01*
X179535Y327118D01*
X179638Y327066D01*
X179749Y326999D01*
X179875Y326925D01*
X180001Y326836D01*
X180119Y326733D01*
X179853Y326333D01*
Y326326D01*
X179838Y326311D01*
X179801Y326274D01*
X179734Y326230D01*
X179697Y326215D01*
X179653Y326207D01*
X179638D01*
X179601Y326215D01*
X179549Y326230D01*
X179490Y326259D01*
X179483D01*
X179475Y326274D01*
X179453Y326281D01*
X179424Y326304D01*
X179350Y326341D01*
X179268Y326385D01*
X179261D01*
X179246Y326400D01*
X179224Y326407D01*
X179194Y326422D01*
X179120Y326459D01*
X179024Y326496D01*
X179017D01*
X179002Y326503D01*
X178972Y326511D01*
X178935Y326526D01*
X178891Y326533D01*
X178839Y326548D01*
X178721Y326570D01*
X178713D01*
X178691Y326577D01*
X178654Y326585D01*
X178610Y326592D01*
X178550D01*
X178484Y326600D01*
X178336Y326607D01*
X178277D01*
X178210Y326600D01*
X178121Y326592D01*
X178025Y326577D01*
X177914Y326555D01*
X177803Y326526D01*
X177692Y326481D01*
X177677Y326474D01*
X177648Y326459D01*
X177588Y326429D01*
X177522Y326392D01*
X177448Y326348D01*
X177359Y326289D01*
X177278Y326222D01*
X177196Y326141D01*
X177189Y326133D01*
X177167Y326104D01*
X177130Y326052D01*
X177085Y325993D01*
X177033Y325911D01*
X176982Y325823D01*
X176930Y325719D01*
X176885Y325601D01*
X176878Y325586D01*
X176871Y325549D01*
X176848Y325482D01*
X176834Y325401D01*
X176811Y325297D01*
X176789Y325179D01*
X176782Y325046D01*
X176774Y324905D01*
Y324898D01*
Y324890D01*
Y324868D01*
Y324838D01*
X176782Y324757D01*
X176789Y324661D01*
X176804Y324542D01*
X176826Y324417D01*
X176856Y324291D01*
X176893Y324165D01*
X176900Y324150D01*
X176915Y324113D01*
X176945Y324047D01*
X176982Y323973D01*
X177026Y323884D01*
X177078Y323795D01*
X177144Y323699D01*
X177218Y323610D01*
X177226Y323603D01*
X177255Y323573D01*
X177300Y323536D01*
X177359Y323484D01*
X177433Y323432D01*
X177514Y323373D01*
X177611Y323321D01*
X177714Y323270D01*
X177729Y323262D01*
X177766Y323255D01*
X177825Y323233D01*
X177907Y323218D01*
X178003Y323196D01*
X178106Y323173D01*
X178225Y323166D01*
X178351Y323159D01*
X178462D01*
X178528Y323166D01*
X178610Y323173D01*
X178698Y323181D01*
X178787Y323196D01*
X178876Y323210D01*
X178883D01*
X178913Y323218D01*
X178957Y323233D01*
X179017Y323247D01*
X179083Y323270D01*
X179157Y323292D01*
X179305Y323358D01*
Y324246D01*
X178691D01*
X178654Y324254D01*
X178610Y324269D01*
X178565Y324291D01*
X178558Y324298D01*
X178543Y324328D01*
X178528Y324365D01*
X178521Y324409D01*
Y324920D01*
X180119D01*
Y322959D01*
X180112Y322951D01*
X180090Y322937D01*
X180053Y322914D01*
X180001Y322877D01*
X179942Y322848D01*
X179882Y322803D01*
X179734Y322729D01*
X179727Y322722D01*
X179697Y322715D01*
X179660Y322692D01*
X179609Y322670D01*
X179549Y322648D01*
X179475Y322618D01*
X179313Y322567D01*
X179305D01*
X179276Y322559D01*
X179231Y322544D01*
X179172Y322537D01*
X179098Y322522D01*
X179017Y322507D01*
X178928Y322493D01*
X178832Y322478D01*
X178817D01*
X178787Y322470D01*
X178735D01*
X178669Y322463D01*
X178587Y322456D01*
X178491D01*
X178395Y322448D01*
X178195D01*
X178151Y322456D01*
X178092D01*
X177966Y322470D01*
X177810Y322493D01*
X177648Y322522D01*
X177477Y322567D01*
X177307Y322626D01*
X177300D01*
X177285Y322633D01*
X177263Y322648D01*
X177233Y322663D01*
X177152Y322700D01*
X177048Y322759D01*
X176930Y322833D01*
X176804Y322922D01*
X176671Y323018D01*
X176545Y323136D01*
Y323144D01*
X176530Y323151D01*
X176493Y323196D01*
X176434Y323262D01*
X176360Y323358D01*
X176279Y323469D01*
X176190Y323603D01*
X176108Y323751D01*
X176034Y323913D01*
Y323921D01*
X176027Y323936D01*
X176020Y323958D01*
X176005Y323995D01*
X175990Y324039D01*
X175975Y324084D01*
X175946Y324209D01*
X175916Y324357D01*
X175886Y324528D01*
X175864Y324713D01*
X175857Y324905D01*
Y324912D01*
Y324927D01*
Y324957D01*
Y324994D01*
X175864Y325046D01*
Y325097D01*
X175879Y325231D01*
X175901Y325386D01*
X175931Y325549D01*
X175975Y325726D01*
X176034Y325897D01*
Y325904D01*
X176042Y325919D01*
X176057Y325941D01*
X176064Y325971D01*
X176108Y326059D01*
X176168Y326170D01*
X176234Y326289D01*
X176323Y326422D01*
X176419Y326555D01*
X176538Y326681D01*
X176545Y326688D01*
X176552Y326696D01*
X176597Y326733D01*
X176663Y326792D01*
X176760Y326866D01*
X176871Y326947D01*
X177004Y327029D01*
X177159Y327110D01*
X177322Y327184D01*
X177329D01*
X177344Y327192D01*
X177366Y327199D01*
X177403Y327214D01*
X177448Y327229D01*
X177500Y327243D01*
X177559Y327258D01*
X177625Y327280D01*
X177781Y327310D01*
X177958Y327340D01*
X178158Y327362D01*
X178365Y327369D01*
X178462D01*
X178513Y327362D01*
D02*
G37*
G36*
X162278Y322500D02*
X161486D01*
Y325608D01*
Y325615D01*
Y325623D01*
Y325667D01*
Y325726D01*
X161493Y325793D01*
Y325800D01*
Y325808D01*
Y325830D01*
X161501Y325860D01*
Y325926D01*
X161508Y326008D01*
X160050Y323277D01*
Y323270D01*
X160043Y323262D01*
X160013Y323225D01*
X159969Y323173D01*
X159917Y323129D01*
X159902Y323122D01*
X159865Y323107D01*
X159806Y323085D01*
X159732Y323077D01*
X159599D01*
X159547Y323085D01*
X159488Y323099D01*
X159421Y323129D01*
X159407Y323136D01*
X159377Y323166D01*
X159340Y323210D01*
X159296Y323277D01*
X157823Y326015D01*
Y326008D01*
Y325993D01*
X157830Y325978D01*
Y325948D01*
X157838Y325874D01*
Y325800D01*
Y325793D01*
Y325786D01*
X157845Y325741D01*
Y325675D01*
Y325608D01*
Y322500D01*
X157053D01*
Y327317D01*
X157801D01*
X157830Y327310D01*
X157860D01*
X157912Y327295D01*
X157919D01*
X157934Y327288D01*
X157978Y327251D01*
X157986Y327243D01*
X158001Y327229D01*
X158015Y327206D01*
X158038Y327169D01*
X159473Y324498D01*
Y324491D01*
X159481Y324476D01*
X159495Y324454D01*
X159510Y324431D01*
X159540Y324357D01*
X159577Y324269D01*
Y324261D01*
X159584Y324246D01*
X159599Y324224D01*
X159606Y324202D01*
X159636Y324128D01*
X159673Y324039D01*
Y324047D01*
X159680Y324061D01*
X159688Y324084D01*
X159703Y324113D01*
X159732Y324195D01*
X159769Y324276D01*
Y324283D01*
X159777Y324298D01*
X159791Y324320D01*
X159799Y324350D01*
X159836Y324417D01*
X159873Y324498D01*
X161301Y327169D01*
X161308Y327177D01*
X161316Y327199D01*
X161338Y327229D01*
X161353Y327251D01*
X161360Y327258D01*
X161375Y327266D01*
X161419Y327295D01*
X161427D01*
X161442Y327303D01*
X161493Y327310D01*
X161501D01*
X161523Y327317D01*
X162278D01*
Y322500D01*
D02*
G37*
G36*
X35794Y320000D02*
X34973D01*
Y323419D01*
X35794D01*
Y320000D01*
D02*
G37*
G36*
X39405D02*
X38584D01*
Y323419D01*
X39405D01*
Y320000D01*
D02*
G37*
G36*
X37600D02*
X36778D01*
Y324951D01*
X37600D01*
Y320000D01*
D02*
G37*
G36*
X154360Y327310D02*
X154478Y327303D01*
X154611Y327295D01*
X154752Y327273D01*
X154893Y327251D01*
X155026Y327214D01*
X155033D01*
X155041Y327206D01*
X155085Y327192D01*
X155152Y327169D01*
X155233Y327140D01*
X155322Y327095D01*
X155418Y327051D01*
X155514Y326992D01*
X155603Y326925D01*
X155610Y326918D01*
X155640Y326896D01*
X155684Y326851D01*
X155729Y326799D01*
X155788Y326733D01*
X155840Y326659D01*
X155892Y326577D01*
X155936Y326481D01*
X155943Y326466D01*
X155951Y326437D01*
X155966Y326385D01*
X155988Y326318D01*
X156010Y326237D01*
X156025Y326141D01*
X156032Y326037D01*
X156040Y325926D01*
Y325919D01*
Y325882D01*
Y325837D01*
X156032Y325778D01*
X156025Y325704D01*
X156010Y325630D01*
X155966Y325467D01*
Y325460D01*
X155951Y325430D01*
X155936Y325393D01*
X155914Y325342D01*
X155884Y325275D01*
X155855Y325208D01*
X155766Y325075D01*
X155758Y325068D01*
X155744Y325046D01*
X155714Y325009D01*
X155677Y324972D01*
X155625Y324920D01*
X155566Y324868D01*
X155507Y324816D01*
X155433Y324764D01*
X155425Y324757D01*
X155396Y324742D01*
X155359Y324720D01*
X155300Y324690D01*
X155233Y324653D01*
X155159Y324616D01*
X155070Y324579D01*
X154981Y324550D01*
X154989Y324542D01*
X155011Y324535D01*
X155041Y324513D01*
X155085Y324483D01*
X155129Y324439D01*
X155174Y324394D01*
X155226Y324343D01*
X155270Y324276D01*
X156476Y322500D01*
X155655D01*
X155603Y322507D01*
X155544Y322522D01*
X155477Y322544D01*
X155462Y322552D01*
X155433Y322574D01*
X155381Y322618D01*
X155337Y322670D01*
X154323Y324217D01*
Y324224D01*
X154315Y324232D01*
X154286Y324269D01*
X154249Y324306D01*
X154197Y324343D01*
X154182Y324350D01*
X154145Y324365D01*
X154086Y324372D01*
X153997Y324380D01*
X153612D01*
Y322500D01*
X152717D01*
Y327317D01*
X154315D01*
X154360Y327310D01*
D02*
G37*
G36*
X152192Y322500D02*
X151481D01*
X151437Y322507D01*
X151370Y322522D01*
X151311Y322552D01*
X151296Y322559D01*
X151267Y322596D01*
X151230Y322641D01*
X151200Y322700D01*
X150837Y323684D01*
X148847D01*
X148484Y322700D01*
X148477Y322685D01*
X148462Y322655D01*
X148432Y322611D01*
X148381Y322559D01*
X148366Y322552D01*
X148329Y322530D01*
X148270Y322507D01*
X148188Y322500D01*
X147493D01*
X149387Y327310D01*
X150305D01*
X152192Y322500D01*
D02*
G37*
G36*
X170840Y326577D02*
X169389D01*
Y322500D01*
X168494D01*
Y326577D01*
X167036D01*
Y327310D01*
X170840D01*
Y326577D01*
D02*
G37*
G36*
X166474Y324209D02*
Y324202D01*
Y324195D01*
Y324172D01*
Y324143D01*
X166466Y324061D01*
X166459Y323965D01*
X166451Y323854D01*
X166429Y323728D01*
X166407Y323603D01*
X166370Y323477D01*
X166363Y323462D01*
X166355Y323425D01*
X166326Y323358D01*
X166296Y323284D01*
X166259Y323196D01*
X166207Y323107D01*
X166148Y323011D01*
X166074Y322922D01*
X166067Y322914D01*
X166037Y322885D01*
X166000Y322840D01*
X165941Y322789D01*
X165867Y322737D01*
X165785Y322678D01*
X165689Y322618D01*
X165578Y322567D01*
X165563Y322559D01*
X165526Y322552D01*
X165467Y322530D01*
X165378Y322507D01*
X165282Y322485D01*
X165164Y322470D01*
X165031Y322456D01*
X164890Y322448D01*
X164779D01*
X164727Y322456D01*
X164668D01*
X164535Y322470D01*
X164527D01*
X164505Y322478D01*
X164468D01*
X164424Y322485D01*
X164372Y322500D01*
X164313Y322507D01*
X164180Y322537D01*
X164224Y323070D01*
Y323085D01*
X164231Y323107D01*
X164246Y323144D01*
X164276Y323181D01*
X164283Y323188D01*
X164313Y323210D01*
X164357Y323225D01*
X164416Y323233D01*
X164461D01*
X164505Y323225D01*
X164564Y323210D01*
X164579D01*
X164601Y323203D01*
X164631D01*
X164705Y323196D01*
X164801Y323188D01*
X164868D01*
X164912Y323196D01*
X165023Y323210D01*
X165134Y323240D01*
X165142D01*
X165156Y323247D01*
X165186Y323262D01*
X165223Y323284D01*
X165297Y323336D01*
X165378Y323410D01*
X165386Y323418D01*
X165393Y323432D01*
X165415Y323462D01*
X165438Y323499D01*
X165460Y323543D01*
X165482Y323595D01*
X165504Y323662D01*
X165526Y323728D01*
Y323736D01*
X165534Y323765D01*
X165541Y323802D01*
X165556Y323862D01*
X165563Y323928D01*
X165571Y324002D01*
X165578Y324091D01*
Y324187D01*
Y327317D01*
X166474D01*
Y324209D01*
D02*
G37*
G36*
X175642Y322500D02*
X174932D01*
X174887Y322507D01*
X174821Y322522D01*
X174762Y322552D01*
X174747Y322559D01*
X174717Y322596D01*
X174680Y322641D01*
X174651Y322700D01*
X174288Y323684D01*
X172297D01*
X171935Y322700D01*
X171927Y322685D01*
X171913Y322655D01*
X171883Y322611D01*
X171831Y322559D01*
X171816Y322552D01*
X171779Y322530D01*
X171720Y322507D01*
X171639Y322500D01*
X170943D01*
X172838Y327310D01*
X173755D01*
X175642Y322500D01*
D02*
G37*
G36*
X42262Y323463D02*
X42328Y323456D01*
X42402Y323448D01*
X42484Y323434D01*
X42573Y323404D01*
X42654Y323374D01*
X42661Y323367D01*
X42691Y323360D01*
X42735Y323337D01*
X42780Y323308D01*
X42839Y323263D01*
X42898Y323219D01*
X42957Y323167D01*
X43017Y323101D01*
X43024Y323093D01*
X43039Y323071D01*
X43068Y323034D01*
X43098Y322990D01*
X43135Y322923D01*
X43172Y322856D01*
X43209Y322782D01*
X43239Y322694D01*
Y322686D01*
X43253Y322649D01*
X43261Y322605D01*
X43276Y322538D01*
X43290Y322464D01*
X43298Y322375D01*
X43313Y322272D01*
Y322168D01*
Y320000D01*
X42491D01*
Y322176D01*
Y322190D01*
Y322227D01*
X42484Y322287D01*
X42476Y322353D01*
X42454Y322427D01*
X42432Y322509D01*
X42395Y322590D01*
X42343Y322657D01*
X42336Y322664D01*
X42314Y322686D01*
X42284Y322716D01*
X42240Y322745D01*
X42180Y322775D01*
X42106Y322805D01*
X42018Y322827D01*
X41914Y322834D01*
X41877D01*
X41840Y322827D01*
X41781Y322819D01*
X41722Y322812D01*
X41655Y322790D01*
X41588Y322768D01*
X41514Y322731D01*
X41507Y322723D01*
X41485Y322716D01*
X41448Y322694D01*
X41403Y322664D01*
X41344Y322627D01*
X41285Y322575D01*
X41226Y322523D01*
X41159Y322464D01*
Y320000D01*
X40338D01*
Y323419D01*
X40863D01*
X40893Y323411D01*
X40922Y323397D01*
X40959Y323382D01*
X40996Y323352D01*
X41026Y323315D01*
X41048Y323263D01*
X41107Y322997D01*
X41115Y323004D01*
X41122Y323012D01*
X41144Y323034D01*
X41174Y323056D01*
X41241Y323115D01*
X41322Y323182D01*
X41329Y323189D01*
X41344Y323197D01*
X41366Y323212D01*
X41396Y323234D01*
X41477Y323286D01*
X41566Y323337D01*
X41574D01*
X41588Y323352D01*
X41618Y323360D01*
X41648Y323374D01*
X41736Y323404D01*
X41840Y323434D01*
X41847D01*
X41870Y323441D01*
X41899Y323448D01*
X41936Y323456D01*
X41988D01*
X42040Y323463D01*
X42166Y323471D01*
X42210D01*
X42262Y323463D01*
D02*
G37*
G36*
X63034Y324862D02*
X63093D01*
X63233Y324847D01*
X63389Y324825D01*
X63559Y324795D01*
X63729Y324751D01*
X63899Y324692D01*
X63907D01*
X63922Y324684D01*
X63944Y324677D01*
X63973Y324662D01*
X64055Y324618D01*
X64158Y324566D01*
X64269Y324499D01*
X64395Y324425D01*
X64521Y324336D01*
X64639Y324233D01*
X64373Y323833D01*
Y323826D01*
X64358Y323811D01*
X64321Y323774D01*
X64255Y323730D01*
X64218Y323715D01*
X64173Y323707D01*
X64158D01*
X64121Y323715D01*
X64070Y323730D01*
X64010Y323759D01*
X64003D01*
X63996Y323774D01*
X63973Y323781D01*
X63944Y323804D01*
X63870Y323841D01*
X63788Y323885D01*
X63781D01*
X63766Y323900D01*
X63744Y323907D01*
X63714Y323922D01*
X63640Y323959D01*
X63544Y323996D01*
X63537D01*
X63522Y324003D01*
X63492Y324011D01*
X63455Y324026D01*
X63411Y324033D01*
X63359Y324048D01*
X63241Y324070D01*
X63233D01*
X63211Y324077D01*
X63174Y324085D01*
X63130Y324092D01*
X63071D01*
X63004Y324100D01*
X62856Y324107D01*
X62797D01*
X62730Y324100D01*
X62641Y324092D01*
X62545Y324077D01*
X62434Y324055D01*
X62323Y324026D01*
X62212Y323981D01*
X62197Y323974D01*
X62168Y323959D01*
X62109Y323929D01*
X62042Y323892D01*
X61968Y323848D01*
X61879Y323789D01*
X61798Y323722D01*
X61716Y323641D01*
X61709Y323633D01*
X61687Y323604D01*
X61650Y323552D01*
X61605Y323493D01*
X61554Y323411D01*
X61502Y323323D01*
X61450Y323219D01*
X61406Y323101D01*
X61398Y323086D01*
X61391Y323049D01*
X61369Y322982D01*
X61354Y322901D01*
X61332Y322797D01*
X61309Y322679D01*
X61302Y322546D01*
X61295Y322405D01*
Y322398D01*
Y322390D01*
Y322368D01*
Y322338D01*
X61302Y322257D01*
X61309Y322161D01*
X61324Y322042D01*
X61346Y321917D01*
X61376Y321791D01*
X61413Y321665D01*
X61420Y321650D01*
X61435Y321613D01*
X61465Y321547D01*
X61502Y321473D01*
X61546Y321384D01*
X61598Y321295D01*
X61665Y321199D01*
X61739Y321110D01*
X61746Y321103D01*
X61776Y321073D01*
X61820Y321036D01*
X61879Y320984D01*
X61953Y320932D01*
X62035Y320873D01*
X62131Y320821D01*
X62234Y320770D01*
X62249Y320762D01*
X62286Y320755D01*
X62345Y320733D01*
X62427Y320718D01*
X62523Y320696D01*
X62627Y320673D01*
X62745Y320666D01*
X62871Y320659D01*
X62982D01*
X63048Y320666D01*
X63130Y320673D01*
X63219Y320681D01*
X63307Y320696D01*
X63396Y320710D01*
X63404D01*
X63433Y320718D01*
X63478Y320733D01*
X63537Y320747D01*
X63603Y320770D01*
X63677Y320792D01*
X63825Y320858D01*
Y321746D01*
X63211D01*
X63174Y321754D01*
X63130Y321769D01*
X63085Y321791D01*
X63078Y321798D01*
X63063Y321828D01*
X63048Y321865D01*
X63041Y321909D01*
Y322420D01*
X64639D01*
Y320459D01*
X64632Y320451D01*
X64610Y320437D01*
X64573Y320414D01*
X64521Y320377D01*
X64462Y320348D01*
X64403Y320303D01*
X64255Y320229D01*
X64247Y320222D01*
X64218Y320215D01*
X64181Y320192D01*
X64129Y320170D01*
X64070Y320148D01*
X63996Y320118D01*
X63833Y320067D01*
X63825D01*
X63796Y320059D01*
X63751Y320044D01*
X63692Y320037D01*
X63618Y320022D01*
X63537Y320007D01*
X63448Y319993D01*
X63352Y319978D01*
X63337D01*
X63307Y319970D01*
X63256D01*
X63189Y319963D01*
X63108Y319956D01*
X63011D01*
X62915Y319948D01*
X62715D01*
X62671Y319956D01*
X62612D01*
X62486Y319970D01*
X62331Y319993D01*
X62168Y320022D01*
X61998Y320067D01*
X61827Y320126D01*
X61820D01*
X61805Y320133D01*
X61783Y320148D01*
X61753Y320163D01*
X61672Y320200D01*
X61568Y320259D01*
X61450Y320333D01*
X61324Y320422D01*
X61191Y320518D01*
X61065Y320636D01*
Y320644D01*
X61050Y320651D01*
X61013Y320696D01*
X60954Y320762D01*
X60880Y320858D01*
X60799Y320969D01*
X60710Y321103D01*
X60629Y321251D01*
X60555Y321413D01*
Y321421D01*
X60547Y321436D01*
X60540Y321458D01*
X60525Y321495D01*
X60510Y321539D01*
X60495Y321584D01*
X60466Y321709D01*
X60436Y321857D01*
X60407Y322028D01*
X60384Y322213D01*
X60377Y322405D01*
Y322412D01*
Y322427D01*
Y322457D01*
Y322494D01*
X60384Y322546D01*
Y322597D01*
X60399Y322731D01*
X60421Y322886D01*
X60451Y323049D01*
X60495Y323226D01*
X60555Y323397D01*
Y323404D01*
X60562Y323419D01*
X60577Y323441D01*
X60584Y323471D01*
X60629Y323559D01*
X60688Y323670D01*
X60754Y323789D01*
X60843Y323922D01*
X60939Y324055D01*
X61058Y324181D01*
X61065Y324188D01*
X61073Y324196D01*
X61117Y324233D01*
X61184Y324292D01*
X61280Y324366D01*
X61391Y324447D01*
X61524Y324529D01*
X61679Y324610D01*
X61842Y324684D01*
X61850D01*
X61864Y324692D01*
X61887Y324699D01*
X61924Y324714D01*
X61968Y324729D01*
X62020Y324743D01*
X62079Y324758D01*
X62146Y324780D01*
X62301Y324810D01*
X62479Y324840D01*
X62678Y324862D01*
X62886Y324869D01*
X62982D01*
X63034Y324862D01*
D02*
G37*
G36*
X32849Y322509D02*
X34440Y320000D01*
X33530D01*
X33493Y320007D01*
X33448Y320022D01*
X33397Y320044D01*
X33389Y320052D01*
X33367Y320074D01*
X33337Y320104D01*
X33308Y320148D01*
X32190Y321998D01*
Y321991D01*
X32183Y321968D01*
X32161Y321917D01*
Y321909D01*
X32153Y321902D01*
X32131Y321857D01*
X31058Y320148D01*
X31051Y320141D01*
X31036Y320118D01*
X31006Y320081D01*
X30969Y320044D01*
X30962Y320037D01*
X30932Y320022D01*
X30888Y320007D01*
X30836Y320000D01*
X30000D01*
X31598Y322472D01*
X30067Y324817D01*
X31014D01*
X31051Y324803D01*
X31088Y324788D01*
X31095Y324780D01*
X31117Y324773D01*
X31140Y324743D01*
X31169Y324706D01*
X32264Y322938D01*
Y322945D01*
X32272Y322967D01*
X32301Y323019D01*
X32309Y323027D01*
X32316Y323049D01*
X32331Y323078D01*
X32346Y323108D01*
X33352Y324692D01*
Y324699D01*
X33367Y324714D01*
X33404Y324758D01*
X33463Y324795D01*
X33500Y324810D01*
X33537Y324817D01*
X34396D01*
X32849Y322509D01*
D02*
G37*
G36*
X46028Y321798D02*
X47205Y320000D01*
X46398D01*
X46361Y320007D01*
X46310Y320022D01*
X46265Y320044D01*
X46258Y320052D01*
X46236Y320074D01*
X46206Y320104D01*
X46176Y320148D01*
X45451Y321339D01*
Y321332D01*
X45444Y321317D01*
X45436Y321295D01*
X45429Y321273D01*
X45399Y321206D01*
X45362Y321140D01*
X44726Y320148D01*
X44719Y320141D01*
X44704Y320118D01*
X44674Y320081D01*
X44637Y320044D01*
X44630Y320037D01*
X44600Y320022D01*
X44556Y320007D01*
X44504Y320000D01*
X43764D01*
X44933Y321761D01*
X43816Y323419D01*
X44659D01*
X44704Y323404D01*
X44741Y323389D01*
X44748Y323382D01*
X44770Y323374D01*
X44793Y323345D01*
X44815Y323308D01*
X45533Y322168D01*
Y322176D01*
X45540Y322198D01*
X45555Y322235D01*
X45570Y322272D01*
X45577Y322279D01*
X45592Y322309D01*
X45614Y322346D01*
X45636Y322390D01*
X46213Y323293D01*
X46221Y323300D01*
X46236Y323330D01*
X46265Y323352D01*
X46295Y323382D01*
X46302Y323389D01*
X46324Y323404D01*
X46354Y323411D01*
X46398Y323419D01*
X47153D01*
X46028Y321798D01*
D02*
G37*
G36*
X35454Y324936D02*
X35520Y324928D01*
X35594Y324899D01*
X35602D01*
X35609Y324891D01*
X35654Y324869D01*
X35705Y324832D01*
X35757Y324780D01*
X35772Y324766D01*
X35802Y324736D01*
X35839Y324684D01*
X35876Y324618D01*
Y324610D01*
X35883Y324603D01*
X35898Y324558D01*
X35913Y324492D01*
X35920Y324410D01*
Y324403D01*
Y324396D01*
X35913Y324344D01*
X35905Y324285D01*
X35876Y324211D01*
Y324203D01*
X35868Y324196D01*
X35846Y324159D01*
X35809Y324107D01*
X35757Y324048D01*
X35742Y324040D01*
X35713Y324011D01*
X35661Y323974D01*
X35594Y323937D01*
X35587D01*
X35580Y323929D01*
X35535Y323922D01*
X35469Y323907D01*
X35387Y323900D01*
X35372D01*
X35321Y323907D01*
X35261Y323915D01*
X35187Y323937D01*
X35180D01*
X35173Y323944D01*
X35128Y323966D01*
X35076Y324003D01*
X35017Y324048D01*
X35010Y324063D01*
X34980Y324100D01*
X34943Y324151D01*
X34906Y324211D01*
Y324218D01*
X34899Y324225D01*
X34891Y324270D01*
X34877Y324336D01*
X34869Y324410D01*
Y324418D01*
Y324433D01*
Y324447D01*
X34877Y324477D01*
X34884Y324544D01*
X34906Y324618D01*
Y324625D01*
X34914Y324632D01*
X34936Y324677D01*
X34973Y324729D01*
X35017Y324780D01*
X35032Y324795D01*
X35069Y324825D01*
X35121Y324862D01*
X35187Y324899D01*
X35195D01*
X35202Y324906D01*
X35247Y324921D01*
X35313Y324936D01*
X35387Y324943D01*
X35424D01*
X35454Y324936D01*
D02*
G37*
G36*
X60162Y320000D02*
X59452D01*
X59408Y320007D01*
X59341Y320022D01*
X59282Y320052D01*
X59267Y320059D01*
X59237Y320096D01*
X59200Y320141D01*
X59171Y320200D01*
X58808Y321184D01*
X56818D01*
X56455Y320200D01*
X56448Y320185D01*
X56433Y320155D01*
X56403Y320111D01*
X56351Y320059D01*
X56337Y320052D01*
X56300Y320030D01*
X56240Y320007D01*
X56159Y320000D01*
X55463D01*
X57358Y324810D01*
X58275D01*
X60162Y320000D01*
D02*
G37*
G36*
X55360Y324077D02*
X53909D01*
Y320000D01*
X53014D01*
Y324077D01*
X51556D01*
Y324810D01*
X55360D01*
Y324077D01*
D02*
G37*
G36*
X39065Y324936D02*
X39132Y324928D01*
X39206Y324899D01*
X39213D01*
X39220Y324891D01*
X39265Y324869D01*
X39317Y324832D01*
X39368Y324780D01*
X39383Y324766D01*
X39413Y324736D01*
X39450Y324684D01*
X39487Y324618D01*
Y324610D01*
X39494Y324603D01*
X39509Y324558D01*
X39524Y324492D01*
X39531Y324410D01*
Y324403D01*
Y324396D01*
X39524Y324344D01*
X39516Y324285D01*
X39487Y324211D01*
Y324203D01*
X39479Y324196D01*
X39457Y324159D01*
X39420Y324107D01*
X39368Y324048D01*
X39354Y324040D01*
X39324Y324011D01*
X39272Y323974D01*
X39206Y323937D01*
X39198D01*
X39191Y323929D01*
X39146Y323922D01*
X39080Y323907D01*
X38998Y323900D01*
X38984D01*
X38932Y323907D01*
X38873Y323915D01*
X38799Y323937D01*
X38791D01*
X38784Y323944D01*
X38739Y323966D01*
X38688Y324003D01*
X38628Y324048D01*
X38621Y324063D01*
X38591Y324100D01*
X38554Y324151D01*
X38517Y324211D01*
Y324218D01*
X38510Y324225D01*
X38503Y324270D01*
X38488Y324336D01*
X38480Y324410D01*
Y324418D01*
Y324433D01*
Y324447D01*
X38488Y324477D01*
X38495Y324544D01*
X38517Y324618D01*
Y324625D01*
X38525Y324632D01*
X38547Y324677D01*
X38584Y324729D01*
X38628Y324780D01*
X38643Y324795D01*
X38680Y324825D01*
X38732Y324862D01*
X38799Y324899D01*
X38806D01*
X38813Y324906D01*
X38858Y324921D01*
X38924Y324936D01*
X38998Y324943D01*
X39035D01*
X39065Y324936D01*
D02*
G37*
G36*
X50994Y321709D02*
Y321702D01*
Y321695D01*
Y321672D01*
Y321643D01*
X50986Y321561D01*
X50979Y321465D01*
X50972Y321354D01*
X50949Y321228D01*
X50927Y321103D01*
X50890Y320977D01*
X50883Y320962D01*
X50875Y320925D01*
X50846Y320858D01*
X50816Y320784D01*
X50779Y320696D01*
X50727Y320607D01*
X50668Y320511D01*
X50594Y320422D01*
X50587Y320414D01*
X50557Y320385D01*
X50520Y320340D01*
X50461Y320289D01*
X50387Y320237D01*
X50306Y320178D01*
X50209Y320118D01*
X50098Y320067D01*
X50084Y320059D01*
X50047Y320052D01*
X49987Y320030D01*
X49899Y320007D01*
X49802Y319985D01*
X49684Y319970D01*
X49551Y319956D01*
X49410Y319948D01*
X49299D01*
X49247Y319956D01*
X49188D01*
X49055Y319970D01*
X49048D01*
X49025Y319978D01*
X48988D01*
X48944Y319985D01*
X48892Y320000D01*
X48833Y320007D01*
X48700Y320037D01*
X48744Y320570D01*
Y320585D01*
X48752Y320607D01*
X48766Y320644D01*
X48796Y320681D01*
X48803Y320688D01*
X48833Y320710D01*
X48877Y320725D01*
X48937Y320733D01*
X48981D01*
X49025Y320725D01*
X49085Y320710D01*
X49099D01*
X49122Y320703D01*
X49151D01*
X49225Y320696D01*
X49321Y320688D01*
X49388D01*
X49432Y320696D01*
X49543Y320710D01*
X49654Y320740D01*
X49662D01*
X49677Y320747D01*
X49706Y320762D01*
X49743Y320784D01*
X49817Y320836D01*
X49899Y320910D01*
X49906Y320918D01*
X49913Y320932D01*
X49936Y320962D01*
X49958Y320999D01*
X49980Y321043D01*
X50002Y321095D01*
X50024Y321162D01*
X50047Y321228D01*
Y321236D01*
X50054Y321265D01*
X50061Y321302D01*
X50076Y321362D01*
X50084Y321428D01*
X50091Y321502D01*
X50098Y321591D01*
Y321687D01*
Y324817D01*
X50994D01*
Y321709D01*
D02*
G37*
%LPC*%
G36*
X154190Y326622D02*
X153612D01*
Y325023D01*
X154264D01*
X154323Y325031D01*
X154389Y325038D01*
X154463Y325046D01*
X154611Y325083D01*
X154619D01*
X154641Y325097D01*
X154678Y325112D01*
X154722Y325127D01*
X154826Y325186D01*
X154922Y325260D01*
X154930Y325268D01*
X154944Y325282D01*
X154967Y325305D01*
X154996Y325334D01*
X155055Y325416D01*
X155107Y325519D01*
Y325527D01*
X155115Y325549D01*
X155129Y325578D01*
X155137Y325623D01*
X155152Y325667D01*
X155159Y325726D01*
X155166Y325860D01*
Y325867D01*
Y325874D01*
Y325919D01*
X155152Y325985D01*
X155137Y326067D01*
X155107Y326156D01*
X155063Y326252D01*
X155004Y326341D01*
X154922Y326422D01*
X154915Y326429D01*
X154878Y326452D01*
X154819Y326489D01*
X154745Y326526D01*
X154641Y326555D01*
X154515Y326592D01*
X154367Y326614D01*
X154190Y326622D01*
D02*
G37*
G36*
X57809Y323981D02*
Y323974D01*
X57802Y323952D01*
X57794Y323922D01*
X57780Y323878D01*
X57750Y323774D01*
X57720Y323663D01*
Y323656D01*
X57713Y323641D01*
X57706Y323611D01*
X57691Y323574D01*
X57661Y323493D01*
X57632Y323404D01*
X57047Y321813D01*
X58579D01*
X57994Y323411D01*
Y323419D01*
X57987Y323434D01*
X57979Y323456D01*
X57972Y323485D01*
X57942Y323559D01*
X57905Y323663D01*
Y323670D01*
X57898Y323693D01*
X57891Y323722D01*
X57876Y323759D01*
X57861Y323804D01*
X57846Y323863D01*
X57809Y323981D01*
D02*
G37*
G36*
X149838Y326481D02*
Y326474D01*
X149831Y326452D01*
X149824Y326422D01*
X149809Y326378D01*
X149779Y326274D01*
X149750Y326163D01*
Y326156D01*
X149742Y326141D01*
X149735Y326111D01*
X149720Y326074D01*
X149690Y325993D01*
X149661Y325904D01*
X149076Y324313D01*
X150608D01*
X150023Y325911D01*
Y325919D01*
X150016Y325934D01*
X150009Y325956D01*
X150001Y325985D01*
X149972Y326059D01*
X149935Y326163D01*
Y326170D01*
X149927Y326193D01*
X149920Y326222D01*
X149905Y326259D01*
X149890Y326304D01*
X149875Y326363D01*
X149838Y326481D01*
D02*
G37*
G36*
X173289D02*
Y326474D01*
X173282Y326452D01*
X173274Y326422D01*
X173259Y326378D01*
X173230Y326274D01*
X173200Y326163D01*
Y326156D01*
X173193Y326141D01*
X173185Y326111D01*
X173171Y326074D01*
X173141Y325993D01*
X173111Y325904D01*
X172527Y324313D01*
X174059D01*
X173474Y325911D01*
Y325919D01*
X173467Y325934D01*
X173459Y325956D01*
X173452Y325985D01*
X173422Y326059D01*
X173385Y326163D01*
Y326170D01*
X173378Y326193D01*
X173370Y326222D01*
X173356Y326259D01*
X173341Y326304D01*
X173326Y326363D01*
X173289Y326481D01*
D02*
G37*
%LPD*%
D21*
X307862Y92681D02*
X308650Y91500D01*
X307862Y90319D02*
X308650Y91500D01*
X307862Y90319D02*
Y92681D01*
X334274Y11929D02*
X335455Y12717D01*
X333093D02*
X334274Y11929D01*
X333093Y12717D02*
X335455D01*
X326400Y11929D02*
X327581Y12717D01*
X325219D02*
X326400Y11929D01*
X325219Y12717D02*
X327581D01*
X318526Y11929D02*
X319707Y12717D01*
X317345D02*
X318526Y11929D01*
X317345Y12717D02*
X319707D01*
X310652Y11929D02*
X311833Y12717D01*
X309471D02*
X310652Y11929D01*
X309471Y12717D02*
X311833D01*
X297904Y11929D02*
X299085Y12717D01*
X296723D02*
X297904Y11929D01*
X296723Y12717D02*
X299085D01*
X290030Y11929D02*
X291211Y12717D01*
X288849D02*
X290030Y11929D01*
X288849Y12717D02*
X291211D01*
X282156Y11929D02*
X283337Y12717D01*
X280975D02*
X282156Y11929D01*
X280975Y12717D02*
X283337D01*
X274282Y11929D02*
X275463Y12717D01*
X273101D02*
X274282Y11929D01*
X273101Y12717D02*
X275463D01*
X78158Y353502D02*
X180600D01*
Y331416D02*
Y353502D01*
X78158Y331416D02*
X180600D01*
X78158D02*
Y353502D01*
X214100Y38300D02*
X254100D01*
Y28300D02*
Y38300D01*
X214100Y28300D02*
X254100D01*
X214100D02*
Y38300D01*
X174100Y38300D02*
X214100D01*
Y28300D02*
Y38300D01*
X174100Y28300D02*
X214100D01*
X174100D02*
Y38300D01*
X134100Y38300D02*
X174100D01*
Y28300D02*
Y38300D01*
X134100Y28300D02*
X174100D01*
X134100D02*
Y38300D01*
Y48300D02*
X174100D01*
Y38300D02*
Y48300D01*
X134100Y38300D02*
X174100D01*
X134100D02*
Y48300D01*
X174100Y38300D02*
Y48300D01*
Y38300D02*
X214100D01*
X174100Y48300D02*
X214100D01*
Y38300D02*
Y48300D01*
X118463Y13D02*
Y2513D01*
X28462Y13D02*
X118463D01*
X28462D02*
Y2513D01*
X113463Y22513D02*
X118463D01*
Y22013D02*
Y22513D01*
Y10513D02*
Y22013D01*
X28462Y10513D02*
Y22513D01*
X33463D01*
X305652Y57500D02*
X339038D01*
Y40000D02*
Y57500D01*
X305652Y40000D02*
X339038D01*
X305652D02*
Y57500D01*
X269282D02*
X302668D01*
Y40000D02*
Y57500D01*
X269282Y40000D02*
X302668D01*
X269282D02*
Y57500D01*
X215358Y38316D02*
Y60402D01*
Y38316D02*
X267800D01*
Y60402D01*
X215358D02*
X267800D01*
D48*
X169832Y101094D02*
G03*
X169832Y101094I-492J0D01*
G01*
X74273Y76151D02*
G03*
X74273Y76151I-492J0D01*
G01*
X115217D02*
G03*
X115217Y76151I-492J0D01*
G01*
X27041Y48680D02*
G03*
X27041Y48680I-492J0D01*
G01*
D49*
X69450Y67194D02*
G03*
X69450Y67194I-1181J0D01*
G01*
X110394D02*
G03*
X110394Y67194I-1181J0D01*
G01*
D50*
X83484Y319000D02*
Y324000D01*
X84984D01*
X83484Y319000D02*
X84984D01*
X93984D02*
Y324000D01*
X92484D02*
X93984D01*
X92484Y319000D02*
X93984D01*
X41800Y91300D02*
X46800D01*
Y89800D02*
Y91300D01*
X41800Y89800D02*
Y91300D01*
Y80800D02*
X46800D01*
Y80800D02*
Y82300D01*
X41800Y80800D02*
Y82300D01*
X325500Y89000D02*
Y94000D01*
X324000Y89000D02*
X325500D01*
X324000Y94000D02*
X325500D01*
X315000Y89000D02*
Y94000D01*
X315000Y89000D02*
X316500D01*
X315000Y94000D02*
X316500D01*
X331774Y27551D02*
X336774D01*
X331774D02*
Y29051D01*
X336774Y27551D02*
Y29051D01*
X331774Y38051D02*
X336774D01*
X331774Y36551D02*
Y38051D01*
X336774Y36551D02*
Y38051D01*
X323900Y27551D02*
X328900D01*
X323900D02*
Y29051D01*
X328900Y27551D02*
Y29051D01*
X323900Y38051D02*
X328900D01*
X323900Y36551D02*
Y38051D01*
X328900Y36551D02*
Y38051D01*
X316026Y27551D02*
X321026D01*
X316026D02*
Y29051D01*
X321026Y27551D02*
Y29051D01*
X316026Y38051D02*
X321026D01*
X316026Y36551D02*
Y38051D01*
X321026Y36551D02*
Y38051D01*
X308152Y27551D02*
X313152D01*
X308152D02*
Y29051D01*
X313152Y27551D02*
Y29051D01*
X308152Y38051D02*
X313152D01*
X308152Y36551D02*
Y38051D01*
X313152Y36551D02*
Y38051D01*
X295404Y27551D02*
X300404D01*
X295404D02*
Y29051D01*
X300404Y27551D02*
Y29051D01*
X295404Y38051D02*
X300404D01*
X295404Y36551D02*
Y38051D01*
X300404Y36551D02*
Y38051D01*
X287530Y27551D02*
X292530D01*
X287530D02*
Y29051D01*
X292530Y27551D02*
Y29051D01*
X287530Y38051D02*
X292530D01*
X287530Y36551D02*
Y38051D01*
X292530Y36551D02*
Y38051D01*
X279656Y27551D02*
X284656D01*
X279656D02*
Y29051D01*
X284656Y27551D02*
Y29051D01*
X279656Y38051D02*
X284656D01*
X279656Y36551D02*
Y38051D01*
X284656Y36551D02*
Y38051D01*
X271782Y27551D02*
X276782D01*
X271782D02*
Y29051D01*
X276782Y27551D02*
Y29051D01*
X271782Y38051D02*
X276782D01*
X271782Y36551D02*
Y38051D01*
X276782Y36551D02*
Y38051D01*
X57100Y140900D02*
X62100D01*
X57100D02*
Y142400D01*
X62100Y140900D02*
Y142400D01*
X57100Y151400D02*
X62100D01*
X57100Y149900D02*
Y151400D01*
X62100Y149900D02*
Y151400D01*
X51000Y140900D02*
X56000D01*
X51000D02*
Y142400D01*
X56000Y140900D02*
Y142400D01*
X51000Y151400D02*
X56000D01*
X51000Y149900D02*
Y151400D01*
X56000Y149900D02*
Y151400D01*
X126813Y32613D02*
Y37613D01*
X125313Y32613D02*
X126813D01*
X125313Y37613D02*
X126813D01*
X116313Y32613D02*
Y37613D01*
X116313Y32613D02*
X117813D01*
X116313Y37613D02*
X117813D01*
X121813Y48113D02*
X126813D01*
Y46613D02*
Y48113D01*
X121813Y46613D02*
Y48113D01*
Y37613D02*
X126813D01*
Y37613D02*
Y39113D01*
X121813Y37613D02*
Y39113D01*
X116313Y48113D02*
X121313D01*
Y46613D02*
Y48113D01*
X116313Y46613D02*
Y48113D01*
Y37613D02*
X121313D01*
Y37613D02*
Y39113D01*
X116313Y37613D02*
Y39113D01*
X126813Y53113D02*
Y58113D01*
X125313Y53113D02*
X126813D01*
X125313Y58113D02*
X126813D01*
X116313Y53113D02*
Y58113D01*
X116313Y53113D02*
X117813D01*
X116313Y58113D02*
X117813D01*
X10678Y34200D02*
Y39200D01*
X12178D01*
X10678Y34200D02*
X12178D01*
X21178D02*
Y39200D01*
X19678D02*
X21178D01*
X19678Y34200D02*
X21178D01*
X21178Y22200D02*
Y27200D01*
X19678Y22200D02*
X21178D01*
X19678Y27200D02*
X21178D01*
X10678Y22200D02*
Y27200D01*
X10678Y22200D02*
X12178D01*
X10678Y27200D02*
X12178D01*
X63162Y140900D02*
X68162D01*
X63162D02*
Y142400D01*
X68162Y140900D02*
Y142400D01*
X63162Y151400D02*
X68162D01*
X63162Y149900D02*
Y151400D01*
X68162Y149900D02*
Y151400D01*
X10778Y40200D02*
X15778D01*
X10778D02*
Y41700D01*
X15778Y40200D02*
Y41700D01*
X10778Y50700D02*
X15778D01*
X10778Y49200D02*
Y50700D01*
X15778Y49200D02*
Y50700D01*
X303000Y89000D02*
X304500D01*
X303000D02*
Y94000D01*
X304500D01*
X312000Y89000D02*
X313500D01*
Y94000D01*
X312000D02*
X313500D01*
X331774Y16079D02*
Y17579D01*
X336774D01*
Y16079D02*
Y17579D01*
X331774Y7079D02*
Y8579D01*
Y7079D02*
X336774D01*
Y8579D01*
X323900Y16079D02*
Y17579D01*
X328900D01*
Y16079D02*
Y17579D01*
X323900Y7079D02*
Y8579D01*
Y7079D02*
X328900D01*
Y8579D01*
X316026Y16079D02*
Y17579D01*
X321026D01*
Y16079D02*
Y17579D01*
X316026Y7079D02*
Y8579D01*
Y7079D02*
X321026D01*
Y8579D01*
X308152Y16079D02*
Y17579D01*
X313152D01*
Y16079D02*
Y17579D01*
X308152Y7079D02*
Y8579D01*
Y7079D02*
X313152D01*
Y8579D01*
X295404Y16079D02*
Y17579D01*
X300404D01*
Y16079D02*
Y17579D01*
X295404Y7079D02*
Y8579D01*
Y7079D02*
X300404D01*
Y8579D01*
X287530Y16079D02*
Y17579D01*
X292530D01*
Y16079D02*
Y17579D01*
X287530Y7079D02*
Y8579D01*
Y7079D02*
X292530D01*
Y8579D01*
X279656Y16079D02*
Y17579D01*
X284656D01*
Y16079D02*
Y17579D01*
X279656Y7079D02*
Y8579D01*
Y7079D02*
X284656D01*
Y8579D01*
X271782Y16079D02*
Y17579D01*
X276782D01*
Y16079D02*
Y17579D01*
X271782Y7079D02*
Y8579D01*
Y7079D02*
X276782D01*
Y8579D01*
X126813Y48113D02*
Y53113D01*
X125313Y48113D02*
X126813D01*
X125313Y53113D02*
X126813D01*
X116313Y48113D02*
Y53113D01*
X116313Y48113D02*
X117813D01*
X116313Y53113D02*
X117813D01*
X21178Y28200D02*
Y33200D01*
X19678Y28200D02*
X21178D01*
X19678Y33200D02*
X21178D01*
X10678Y28200D02*
Y33200D01*
X10678Y28200D02*
X12178D01*
X10678Y33200D02*
X12178D01*
X59100Y39000D02*
X64100D01*
X59100D02*
Y40500D01*
X64100Y39000D02*
Y40500D01*
X59100Y49500D02*
X64100D01*
X59100Y48000D02*
Y49500D01*
X64100Y48000D02*
Y49500D01*
X41800Y39000D02*
X46800D01*
X41800D02*
Y40500D01*
X46800Y39000D02*
Y40500D01*
X41800Y49500D02*
X46800D01*
X41800Y48000D02*
Y49500D01*
X46800Y48000D02*
Y49500D01*
X100000Y39000D02*
X105000D01*
X100000D02*
Y40500D01*
X105000Y39000D02*
Y40500D01*
X100000Y49500D02*
X105000D01*
X100000Y48000D02*
Y49500D01*
X105000Y48000D02*
Y49500D01*
X82700Y39000D02*
X87700D01*
X82700D02*
Y40500D01*
X87700Y39000D02*
Y40500D01*
X82700Y49500D02*
X87700D01*
X82700Y48000D02*
Y49500D01*
X87700Y48000D02*
Y49500D01*
X82700Y91200D02*
X87700D01*
Y89700D02*
Y91200D01*
X82700Y89700D02*
Y91200D01*
Y80700D02*
X87700D01*
Y80700D02*
Y82200D01*
X82700Y80700D02*
Y82200D01*
X100100Y91200D02*
X105100D01*
Y89700D02*
Y91200D01*
X100100Y89700D02*
Y91200D01*
Y80700D02*
X105100D01*
Y80700D02*
Y82200D01*
X100100Y80700D02*
Y82200D01*
X59100Y80800D02*
Y82300D01*
Y80800D02*
X64100D01*
X59100Y89800D02*
Y91300D01*
X64100D01*
Y80800D02*
Y82300D01*
Y89800D02*
Y91300D01*
D51*
X272500Y90000D02*
X295000D01*
X126713Y32600D02*
X128313Y34200D01*
X126813Y77800D02*
Y83000D01*
X116813D02*
X126813D01*
X116813Y77800D02*
Y83000D01*
X126813Y72913D02*
Y77500D01*
X116813Y77800D02*
X126813D01*
X116813Y72913D02*
Y77500D01*
X126813Y65413D02*
Y72913D01*
Y60413D02*
Y65413D01*
X132000Y50400D02*
X134100Y48300D01*
X132000Y50400D02*
Y54000D01*
X196702Y87610D02*
Y88496D01*
X171898Y87610D02*
Y88496D01*
X196702Y100504D02*
Y101390D01*
X171898Y100504D02*
Y101390D01*
Y87610D02*
X196702D01*
X171898Y101390D02*
X196702D01*
X33623Y59320D02*
Y71131D01*
X72206Y59320D02*
Y71131D01*
X33623Y59320D02*
X72206D01*
X33623Y71131D02*
X72206D01*
X74567Y59320D02*
Y71131D01*
X113150Y59320D02*
Y71131D01*
X74567Y59320D02*
X113150D01*
X74567Y71131D02*
X113150D01*
X136100Y91500D02*
Y96500D01*
Y96500D02*
X146100D01*
X136100Y86500D02*
X146100D01*
X136100D02*
Y91500D01*
X146100D01*
Y96500D01*
X156100D01*
Y91500D02*
Y96500D01*
X146100Y91500D02*
X156100D01*
X146100Y86500D02*
Y91500D01*
Y86500D02*
X156100D01*
X166100D01*
X156100D02*
Y91500D01*
X166100D01*
Y86500D02*
Y91500D01*
X50354Y310750D02*
X55079D01*
X114921D02*
X119646D01*
X114921Y287250D02*
X124370D01*
X45630D02*
X55079D01*
X45630D02*
Y306026D01*
X50354Y310750D01*
X119646D02*
X124370Y306026D01*
Y287250D02*
Y306026D01*
X51756Y291250D02*
X118244D01*
X51756D02*
Y306750D01*
X118244D01*
Y291250D02*
Y306750D01*
X50354Y132750D02*
X55079D01*
X114921D02*
X119646D01*
X114921Y109250D02*
X124370D01*
X45630D02*
X55079D01*
X45630D02*
Y128026D01*
X50354Y132750D01*
X119646D02*
X124370Y128026D01*
Y109250D02*
Y128026D01*
X51756Y113250D02*
X118244D01*
X51756D02*
Y128750D01*
X118244D01*
Y113250D02*
Y128750D01*
X128313Y34200D02*
Y58913D01*
X126813Y60413D02*
X128313Y58913D01*
X116813Y60413D02*
Y65413D01*
Y60413D02*
X126813D01*
X116813Y65413D02*
X121813D01*
X116813D02*
Y72913D01*
X121813Y65413D02*
Y72913D01*
Y65413D02*
X126813D01*
X116813Y72913D02*
X126813D01*
X132000Y92400D02*
X136100Y96500D01*
X132000Y54000D02*
Y92400D01*
X91496Y97716D02*
Y99684D01*
X76535D02*
X91496D01*
X76535Y97716D02*
X91496D01*
X76535D02*
Y99684D01*
X69080Y32316D02*
Y34284D01*
X54120D02*
X69080D01*
X54120Y32316D02*
X69080D01*
X54120D02*
Y34284D01*
X92680Y32316D02*
Y34284D01*
X77720D02*
X92680D01*
X77720Y32316D02*
X92680D01*
X77720D02*
Y34284D01*
X109980Y32316D02*
Y34284D01*
X95020D02*
X109980D01*
X95020Y32316D02*
X109980D01*
X95020D02*
Y34284D01*
X71811Y97716D02*
Y99684D01*
X56850D02*
X71811D01*
X56850Y97716D02*
X71811D01*
X56850D02*
Y99684D01*
X111181Y97716D02*
Y99684D01*
X96220D02*
X111181D01*
X96220Y97716D02*
X111181D01*
X96220D02*
Y99684D01*
X37850Y328936D02*
Y332479D01*
X28402D02*
X37850D01*
X28402Y328936D02*
Y332479D01*
X350Y328936D02*
Y353739D01*
X65902Y328936D02*
Y353739D01*
X350D02*
X65902D01*
X350Y328936D02*
X65902D01*
X212069Y93874D02*
X235100D01*
X212069Y63953D02*
Y93874D01*
Y63953D02*
X258132D01*
Y93874D01*
X235100D02*
X258132D01*
X267800Y60402D02*
Y87500D01*
X272500Y82500D02*
X295000D01*
Y97500D01*
X272500D02*
X295000D01*
X272500Y82500D02*
Y97500D01*
X267800Y87500D02*
Y92800D01*
X272500Y97500D01*
D52*
X17100Y42480D02*
X24974D01*
X17100Y47401D02*
X24974D01*
X17100Y42480D02*
Y47401D01*
X24974Y42480D02*
Y47401D01*
D53*
X95500Y320000D02*
Y322999D01*
X97000D01*
X97499Y322499D01*
Y321499D01*
X97000Y321000D01*
X95500D01*
X96500D02*
X97499Y320000D01*
X100498D02*
X98499D01*
X100498Y321999D01*
Y322499D01*
X99999Y322999D01*
X98999D01*
X98499Y322499D01*
X101498D02*
X101998Y322999D01*
X102998D01*
X103497Y322499D01*
Y320500D01*
X102998Y320000D01*
X101998D01*
X101498Y320500D01*
Y322499D01*
X52500Y29500D02*
X49501D01*
Y30999D01*
X50001Y31499D01*
X51000D01*
X51500Y30999D01*
Y29500D01*
Y30500D02*
X52500Y31499D01*
Y32499D02*
X49501D01*
X52500Y34498D01*
X49501D01*
X52500Y36998D02*
X49501D01*
X51000Y35498D01*
Y37497D01*
X55000Y94778D02*
X52001D01*
Y96277D01*
X52501Y96777D01*
X53500D01*
X54000Y96277D01*
Y94778D01*
Y95778D02*
X55000Y96777D01*
Y97777D02*
X52001D01*
X55000Y99776D01*
X52001D01*
X55000Y100776D02*
Y101776D01*
Y101276D01*
X52001D01*
X52501Y100776D01*
X76142Y29500D02*
X73143D01*
Y30999D01*
X73642Y31499D01*
X74642D01*
X75142Y30999D01*
Y29500D01*
Y30500D02*
X76142Y31499D01*
Y32499D02*
X73143D01*
X76142Y34498D01*
X73143D01*
Y37497D02*
Y35498D01*
X74642D01*
X74142Y36498D01*
Y36998D01*
X74642Y37497D01*
X75642D01*
X76142Y36998D01*
Y35998D01*
X75642Y35498D01*
X73500Y91000D02*
Y93999D01*
X74999D01*
X75499Y93499D01*
Y92500D01*
X74999Y92000D01*
X73500D01*
X74500D02*
X75499Y91000D01*
X76499D02*
Y93999D01*
X78498Y91000D01*
Y93999D01*
X81497Y91000D02*
X79498D01*
X81497Y92999D01*
Y93499D01*
X80998Y93999D01*
X79998D01*
X79498Y93499D01*
X115500Y94778D02*
X112501D01*
Y96277D01*
X113001Y96777D01*
X114000D01*
X114500Y96277D01*
Y94778D01*
Y95778D02*
X115500Y96777D01*
Y97777D02*
X112501D01*
X115500Y99776D01*
X112501D01*
X113001Y100776D02*
X112501Y101276D01*
Y102276D01*
X113001Y102775D01*
X113501D01*
X114000Y102276D01*
Y101776D01*
Y102276D01*
X114500Y102775D01*
X115000D01*
X115500Y102276D01*
Y101276D01*
X115000Y100776D01*
X114500Y29500D02*
X111501D01*
Y30999D01*
X112001Y31499D01*
X113001D01*
X113500Y30999D01*
Y29500D01*
Y30500D02*
X114500Y31499D01*
Y32499D02*
X111501D01*
X114500Y34498D01*
X111501D01*
Y37497D02*
X112001Y36498D01*
X113001Y35498D01*
X114000D01*
X114500Y35998D01*
Y36998D01*
X114000Y37497D01*
X113500D01*
X113001Y36998D01*
Y35498D01*
X24499Y31499D02*
X24000Y31999D01*
X23000D01*
X22500Y31499D01*
Y29500D01*
X23000Y29000D01*
X24000D01*
X24499Y29500D01*
X25499Y29000D02*
X26499D01*
X25999D01*
Y31999D01*
X25499Y31499D01*
X27998Y29000D02*
X28998D01*
X28498D01*
Y31999D01*
X27998Y31499D01*
X73000Y83999D02*
X74000D01*
X73500D01*
Y81000D01*
X73000D01*
X74000D01*
X77499Y83499D02*
X76999Y83999D01*
X75999D01*
X75499Y83499D01*
Y81500D01*
X75999Y81000D01*
X76999D01*
X77499Y81500D01*
X78498Y83499D02*
X78998Y83999D01*
X79998D01*
X80498Y83499D01*
Y82999D01*
X79998Y82499D01*
X79498D01*
X79998D01*
X80498Y82000D01*
Y81500D01*
X79998Y81000D01*
X78998D01*
X78498Y81500D01*
X203399Y92099D02*
X202900Y92599D01*
X201900D01*
X201400Y92099D01*
Y90100D01*
X201900Y89600D01*
X202900D01*
X203399Y90100D01*
X204399Y89600D02*
X205399D01*
X204899D01*
Y92599D01*
X204399Y92099D01*
X66001Y41499D02*
X65501Y40999D01*
Y40000D01*
X66001Y39500D01*
X68000D01*
X68500Y40000D01*
Y40999D01*
X68000Y41499D01*
X66001Y42499D02*
X65501Y42999D01*
Y43999D01*
X66001Y44498D01*
X66501D01*
X67001Y43999D01*
X67500Y44498D01*
X68000D01*
X68500Y43999D01*
Y42999D01*
X68000Y42499D01*
X67500D01*
X67001Y42999D01*
X66501Y42499D01*
X66001D01*
X67001Y42999D02*
Y43999D01*
X48802Y41499D02*
X48302Y40999D01*
Y40000D01*
X48802Y39500D01*
X50801D01*
X51301Y40000D01*
Y40999D01*
X50801Y41499D01*
X48302Y42499D02*
Y44498D01*
X48802D01*
X50801Y42499D01*
X51301D01*
X66054Y83499D02*
X65554Y82999D01*
Y82000D01*
X66054Y81500D01*
X68054D01*
X68554Y82000D01*
Y82999D01*
X68054Y83499D01*
X66054Y84499D02*
X65554Y84999D01*
Y85999D01*
X66054Y86498D01*
X66554D01*
X67054Y85999D01*
Y85499D01*
Y85999D01*
X67554Y86498D01*
X68054D01*
X68554Y85999D01*
Y84999D01*
X68054Y84499D01*
X48802Y83499D02*
X48302Y82999D01*
Y82000D01*
X48802Y81500D01*
X50801D01*
X51301Y82000D01*
Y82999D01*
X50801Y83499D01*
X51301Y86498D02*
Y84499D01*
X49302Y86498D01*
X48802D01*
X48302Y85999D01*
Y84999D01*
X48802Y84499D01*
X89501Y41499D02*
X89001Y40999D01*
Y40000D01*
X89501Y39500D01*
X91500D01*
X92000Y40000D01*
Y40999D01*
X91500Y41499D01*
Y42499D02*
X92000Y42999D01*
Y43999D01*
X91500Y44498D01*
X89501D01*
X89001Y43999D01*
Y42999D01*
X89501Y42499D01*
X90001D01*
X90500Y42999D01*
Y44498D01*
X107001Y41499D02*
X106501Y40999D01*
Y40000D01*
X107001Y39500D01*
X109000D01*
X109500Y40000D01*
Y40999D01*
X109000Y41499D01*
X109500Y42499D02*
Y43499D01*
Y42999D01*
X106501D01*
X107001Y42499D01*
Y44998D02*
X106501Y45498D01*
Y46498D01*
X107001Y46998D01*
X109000D01*
X109500Y46498D01*
Y45498D01*
X109000Y44998D01*
X107001D01*
X89501Y83499D02*
X89001Y82999D01*
Y82000D01*
X89501Y81500D01*
X91500D01*
X92000Y82000D01*
Y82999D01*
X91500Y83499D01*
X92000Y85999D02*
X89001D01*
X90500Y84499D01*
Y86498D01*
X107001Y83499D02*
X106501Y82999D01*
Y82000D01*
X107001Y81500D01*
X109000D01*
X109500Y82000D01*
Y82999D01*
X109000Y83499D01*
X106501Y86498D02*
Y84499D01*
X108001D01*
X107501Y85499D01*
Y85999D01*
X108001Y86498D01*
X109000D01*
X109500Y85999D01*
Y84999D01*
X109000Y84499D01*
X61000Y153000D02*
X58001D01*
Y154499D01*
X58501Y154999D01*
X59500D01*
X60000Y154499D01*
Y153000D01*
Y154000D02*
X61000Y154999D01*
Y157998D02*
Y155999D01*
X59001Y157998D01*
X58501D01*
X58001Y157499D01*
Y156499D01*
X58501Y155999D01*
X55079Y153000D02*
X52080D01*
Y154499D01*
X52579Y154999D01*
X53579D01*
X54079Y154499D01*
Y153000D01*
Y154000D02*
X55079Y154999D01*
Y155999D02*
Y156999D01*
Y156499D01*
X52080D01*
X52579Y155999D01*
X67000Y153000D02*
X64001D01*
Y154499D01*
X64501Y154999D01*
X65500D01*
X66000Y154499D01*
Y153000D01*
Y154000D02*
X67000Y154999D01*
X64501Y155999D02*
X64001Y156499D01*
Y157499D01*
X64501Y157998D01*
X65001D01*
X65500Y157499D01*
Y156999D01*
Y157499D01*
X66000Y157998D01*
X66500D01*
X67000Y157499D01*
Y156499D01*
X66500Y155999D01*
X316500Y95500D02*
Y98499D01*
X318000D01*
X318499Y97999D01*
Y97000D01*
X318000Y96500D01*
X316500D01*
X317500D02*
X318499Y95500D01*
X319499D02*
X320499D01*
X319999D01*
Y98499D01*
X319499Y97999D01*
X321998Y96000D02*
X322498Y95500D01*
X323498D01*
X323998Y96000D01*
Y97999D01*
X323498Y98499D01*
X322498D01*
X321998Y97999D01*
Y97499D01*
X322498Y97000D01*
X323998D01*
X304500Y98499D02*
Y95500D01*
X305999D01*
X306499Y96000D01*
Y97999D01*
X305999Y98499D01*
X304500D01*
X307499Y96000D02*
X307999Y95500D01*
X308998D01*
X309498Y96000D01*
Y97999D01*
X308998Y98499D01*
X307999D01*
X307499Y97999D01*
Y97499D01*
X307999Y97000D01*
X309498D01*
X160499Y90499D02*
X159500D01*
X160000D01*
Y88000D01*
X159500Y87500D01*
X159000D01*
X158500Y88000D01*
X161499D02*
X161999Y87500D01*
X162999D01*
X163498Y88000D01*
Y89999D01*
X162999Y90499D01*
X161999D01*
X161499Y89999D01*
Y89499D01*
X161999Y88999D01*
X163498D01*
X120999Y76499D02*
X120500Y76999D01*
X119500D01*
X119000Y76499D01*
Y74500D01*
X119500Y74000D01*
X120500D01*
X120999Y74500D01*
X123998Y76999D02*
X122999Y76499D01*
X121999Y75499D01*
Y74500D01*
X122499Y74000D01*
X123499D01*
X123998Y74500D01*
Y75000D01*
X123499Y75499D01*
X121999D01*
X272000Y5999D02*
Y3000D01*
X273499D01*
X273999Y3500D01*
Y5499D01*
X273499Y5999D01*
X272000D01*
X274999Y5499D02*
X275499Y5999D01*
X276499D01*
X276998Y5499D01*
Y4999D01*
X276499Y4500D01*
X276998Y4000D01*
Y3500D01*
X276499Y3000D01*
X275499D01*
X274999Y3500D01*
Y4000D01*
X275499Y4500D01*
X274999Y4999D01*
Y5499D01*
X275499Y4500D02*
X276499D01*
X279900Y5999D02*
Y3000D01*
X281399D01*
X281899Y3500D01*
Y5499D01*
X281399Y5999D01*
X279900D01*
X282899D02*
X284898D01*
Y5499D01*
X282899Y3500D01*
Y3000D01*
X287800Y5999D02*
Y3000D01*
X289300D01*
X289799Y3500D01*
Y5499D01*
X289300Y5999D01*
X287800D01*
X292798D02*
X291799Y5499D01*
X290799Y4500D01*
Y3500D01*
X291299Y3000D01*
X292299D01*
X292798Y3500D01*
Y4000D01*
X292299Y4500D01*
X290799D01*
X295700Y5999D02*
Y3000D01*
X297200D01*
X297699Y3500D01*
Y5499D01*
X297200Y5999D01*
X295700D01*
X300698D02*
X298699D01*
Y4500D01*
X299699Y4999D01*
X300199D01*
X300698Y4500D01*
Y3500D01*
X300199Y3000D01*
X299199D01*
X298699Y3500D01*
X308400Y5999D02*
Y3000D01*
X309899D01*
X310399Y3500D01*
Y5499D01*
X309899Y5999D01*
X308400D01*
X312898Y3000D02*
Y5999D01*
X311399Y4500D01*
X313398D01*
X316300Y5999D02*
Y3000D01*
X317799D01*
X318299Y3500D01*
Y5499D01*
X317799Y5999D01*
X316300D01*
X319299Y5499D02*
X319799Y5999D01*
X320798D01*
X321298Y5499D01*
Y4999D01*
X320798Y4500D01*
X320299D01*
X320798D01*
X321298Y4000D01*
Y3500D01*
X320798Y3000D01*
X319799D01*
X319299Y3500D01*
X324200Y5999D02*
Y3000D01*
X325699D01*
X326199Y3500D01*
Y5499D01*
X325699Y5999D01*
X324200D01*
X329198Y3000D02*
X327199D01*
X329198Y4999D01*
Y5499D01*
X328698Y5999D01*
X327699D01*
X327199Y5499D01*
X332000Y5999D02*
Y3000D01*
X333500D01*
X333999Y3500D01*
Y5499D01*
X333500Y5999D01*
X332000D01*
X334999Y3000D02*
X335999D01*
X335499D01*
Y5999D01*
X334999Y5499D01*
X259900Y93299D02*
X260900D01*
X260400D01*
Y90300D01*
X259900D01*
X260900D01*
X264399Y92799D02*
X263899Y93299D01*
X262899D01*
X262399Y92799D01*
Y90800D01*
X262899Y90300D01*
X263899D01*
X264399Y90800D01*
X265398Y90300D02*
X266398D01*
X265898D01*
Y93299D01*
X265398Y92799D01*
X129499Y112499D02*
X128500D01*
X128999D01*
Y110000D01*
X128500Y109500D01*
X128000D01*
X127500Y110000D01*
X131999Y109500D02*
Y112499D01*
X130499Y111000D01*
X132498D01*
X129499Y290249D02*
X128500D01*
X128999D01*
Y287750D01*
X128500Y287250D01*
X128000D01*
X127500Y287750D01*
X130499Y289749D02*
X130999Y290249D01*
X131999D01*
X132498Y289749D01*
Y289249D01*
X131999Y288750D01*
X131499D01*
X131999D01*
X132498Y288250D01*
Y287750D01*
X131999Y287250D01*
X130999D01*
X130499Y287750D01*
X140499Y95499D02*
X139500D01*
X139999D01*
Y93000D01*
X139500Y92500D01*
X139000D01*
X138500Y93000D01*
X141499Y95499D02*
X143498D01*
Y94999D01*
X141499Y93000D01*
Y92500D01*
X150499Y95499D02*
X149500D01*
X149999D01*
Y93000D01*
X149500Y92500D01*
X149000D01*
X148500Y93000D01*
X151499Y94999D02*
X151999Y95499D01*
X152999D01*
X153498Y94999D01*
Y94499D01*
X152999Y93999D01*
X153498Y93500D01*
Y93000D01*
X152999Y92500D01*
X151999D01*
X151499Y93000D01*
Y93500D01*
X151999Y93999D01*
X151499Y94499D01*
Y94999D01*
X151999Y93999D02*
X152999D01*
X139999Y90499D02*
X139000D01*
X139499D01*
Y88000D01*
X139000Y87500D01*
X138500D01*
X138000Y88000D01*
X140999Y87500D02*
X141999D01*
X141499D01*
Y90499D01*
X140999Y89999D01*
X143498Y87500D02*
X144498D01*
X143998D01*
Y90499D01*
X143498Y89999D01*
X149499Y90499D02*
X148500D01*
X149000D01*
Y88000D01*
X148500Y87500D01*
X148000D01*
X147500Y88000D01*
X150499Y87500D02*
X151499D01*
X150999D01*
Y90499D01*
X150499Y89999D01*
X152998D02*
X153498Y90499D01*
X154498D01*
X154998Y89999D01*
Y88000D01*
X154498Y87500D01*
X153498D01*
X152998Y88000D01*
Y89999D01*
X15000Y52000D02*
X12001D01*
Y53500D01*
X12501Y53999D01*
X13500D01*
X14000Y53500D01*
Y52000D01*
Y53000D02*
X15000Y53999D01*
X12001Y56998D02*
Y54999D01*
X13500D01*
X13001Y55999D01*
Y56499D01*
X13500Y56998D01*
X14500D01*
X15000Y56499D01*
Y55499D01*
X14500Y54999D01*
X22500Y23500D02*
Y26499D01*
X24000D01*
X24499Y25999D01*
Y24999D01*
X24000Y24500D01*
X22500D01*
X23500D02*
X24499Y23500D01*
X25499D02*
X26499D01*
X25999D01*
Y26499D01*
X25499Y25999D01*
X27998D02*
X28498Y26499D01*
X29498D01*
X29998Y25999D01*
Y25499D01*
X29498Y24999D01*
X29998Y24500D01*
Y24000D01*
X29498Y23500D01*
X28498D01*
X27998Y24000D01*
Y24500D01*
X28498Y24999D01*
X27998Y25499D01*
Y25999D01*
X28498Y24999D02*
X29498D01*
X22500Y35000D02*
Y37999D01*
X24000D01*
X24499Y37499D01*
Y36500D01*
X24000Y36000D01*
X22500D01*
X23500D02*
X24499Y35000D01*
X25499Y37499D02*
X25999Y37999D01*
X26999D01*
X27498Y37499D01*
Y36999D01*
X26999Y36500D01*
X27498Y36000D01*
Y35500D01*
X26999Y35000D01*
X25999D01*
X25499Y35500D01*
Y36000D01*
X25999Y36500D01*
X25499Y36999D01*
Y37499D01*
X25999Y36500D02*
X26999D01*
X119000Y79000D02*
Y81999D01*
X120500D01*
X120999Y81499D01*
Y80500D01*
X120500Y80000D01*
X119000D01*
X120000D02*
X120999Y79000D01*
X123499D02*
Y81999D01*
X121999Y80500D01*
X123998D01*
X121000Y66500D02*
X118001D01*
Y68000D01*
X118501Y68499D01*
X119501D01*
X120000Y68000D01*
Y66500D01*
Y67500D02*
X121000Y68499D01*
X118001Y71498D02*
X118501Y70499D01*
X119501Y69499D01*
X120500D01*
X121000Y69999D01*
Y70999D01*
X120500Y71498D01*
X120000D01*
X119501Y70999D01*
Y69499D01*
X125698Y66500D02*
X122699D01*
Y68000D01*
X123199Y68499D01*
X124199D01*
X124699Y68000D01*
Y66500D01*
Y67500D02*
X125698Y68499D01*
X122699Y69499D02*
Y71498D01*
X123199D01*
X125198Y69499D01*
X125698D01*
X118000Y61500D02*
Y64499D01*
X119500D01*
X119999Y63999D01*
Y62999D01*
X119500Y62500D01*
X118000D01*
X119000D02*
X119999Y61500D01*
X120999D02*
X121999D01*
X121499D01*
Y64499D01*
X120999Y63999D01*
X123498Y64499D02*
X125498D01*
Y63999D01*
X123498Y62000D01*
Y61500D01*
X275907Y18896D02*
X272908D01*
Y20396D01*
X273408Y20896D01*
X274408D01*
X274907Y20396D01*
Y18896D01*
Y19896D02*
X275907Y20896D01*
Y21895D02*
Y22895D01*
Y22395D01*
X272908D01*
X273408Y21895D01*
X272908Y26394D02*
X273408Y25394D01*
X274408Y24394D01*
X275407D01*
X275907Y24894D01*
Y25894D01*
X275407Y26394D01*
X274907D01*
X274408Y25894D01*
Y24394D01*
X283781Y18896D02*
X280782D01*
Y20396D01*
X281282Y20896D01*
X282282D01*
X282782Y20396D01*
Y18896D01*
Y19896D02*
X283781Y20896D01*
Y21895D02*
Y22895D01*
Y22395D01*
X280782D01*
X281282Y21895D01*
X280782Y26394D02*
Y24394D01*
X282282D01*
X281782Y25394D01*
Y25894D01*
X282282Y26394D01*
X283281D01*
X283781Y25894D01*
Y24894D01*
X283281Y24394D01*
X291655Y18896D02*
X288656D01*
Y20396D01*
X289156Y20896D01*
X290156D01*
X290655Y20396D01*
Y18896D01*
Y19896D02*
X291655Y20896D01*
Y21895D02*
Y22895D01*
Y22395D01*
X288656D01*
X289156Y21895D01*
X291655Y25894D02*
X288656D01*
X290156Y24394D01*
Y26394D01*
X299529Y18896D02*
X296530D01*
Y20396D01*
X297030Y20896D01*
X298030D01*
X298530Y20396D01*
Y18896D01*
Y19896D02*
X299529Y20896D01*
Y21895D02*
Y22895D01*
Y22395D01*
X296530D01*
X297030Y21895D01*
Y24394D02*
X296530Y24894D01*
Y25894D01*
X297030Y26394D01*
X297530D01*
X298030Y25894D01*
Y25394D01*
Y25894D01*
X298530Y26394D01*
X299029D01*
X299529Y25894D01*
Y24894D01*
X299029Y24394D01*
X312377Y18796D02*
X309378D01*
Y20296D01*
X309878Y20796D01*
X310878D01*
X311378Y20296D01*
Y18796D01*
Y19796D02*
X312377Y20796D01*
Y21795D02*
Y22795D01*
Y22295D01*
X309378D01*
X309878Y21795D01*
X312377Y26294D02*
Y24294D01*
X310378Y26294D01*
X309878D01*
X309378Y25794D01*
Y24794D01*
X309878Y24294D01*
X320251Y18796D02*
X317252D01*
Y20296D01*
X317752Y20796D01*
X318752D01*
X319252Y20296D01*
Y18796D01*
Y19796D02*
X320251Y20796D01*
Y21795D02*
Y22795D01*
Y22295D01*
X317252D01*
X317752Y21795D01*
X320251Y24294D02*
Y25294D01*
Y24794D01*
X317252D01*
X317752Y24294D01*
X328125Y18796D02*
X325126D01*
Y20296D01*
X325626Y20796D01*
X326626D01*
X327126Y20296D01*
Y18796D01*
Y19796D02*
X328125Y20796D01*
Y21795D02*
Y22795D01*
Y22295D01*
X325126D01*
X325626Y21795D01*
Y24294D02*
X325126Y24794D01*
Y25794D01*
X325626Y26294D01*
X327625D01*
X328125Y25794D01*
Y24794D01*
X327625Y24294D01*
X325626D01*
X335999Y18796D02*
X333000D01*
Y20296D01*
X333500Y20796D01*
X334500D01*
X335000Y20296D01*
Y18796D01*
Y19796D02*
X335999Y20796D01*
X335500Y21795D02*
X335999Y22295D01*
Y23295D01*
X335500Y23795D01*
X333500D01*
X333000Y23295D01*
Y22295D01*
X333500Y21795D01*
X334000D01*
X334500Y22295D01*
Y23795D01*
X17700Y54299D02*
X18700D01*
X18200D01*
Y51300D01*
X17700D01*
X18700D01*
X22198Y53799D02*
X21699Y54299D01*
X20699D01*
X20199Y53799D01*
Y51800D01*
X20699Y51300D01*
X21699D01*
X22198Y51800D01*
X24698Y51300D02*
Y54299D01*
X23198Y52799D01*
X25198D01*
X267301Y33599D02*
Y32600D01*
Y33099D01*
X269800D01*
X270300Y32600D01*
Y32100D01*
X269800Y31600D01*
X267301Y36598D02*
Y34599D01*
X268800D01*
X268301Y35599D01*
Y36099D01*
X268800Y36598D01*
X269800D01*
X270300Y36099D01*
Y35099D01*
X269800Y34599D01*
X303101Y35199D02*
Y34200D01*
Y34699D01*
X305600D01*
X306100Y34200D01*
Y33700D01*
X305600Y33200D01*
X303101Y38198D02*
X303601Y37199D01*
X304601Y36199D01*
X305600D01*
X306100Y36699D01*
Y37699D01*
X305600Y38198D01*
X305100D01*
X304601Y37699D01*
Y36199D01*
X184499Y335499D02*
X183500D01*
X184000D01*
Y333000D01*
X183500Y332500D01*
X183000D01*
X182500Y333000D01*
X187498Y332500D02*
X185499D01*
X187498Y334499D01*
Y334999D01*
X186999Y335499D01*
X185999D01*
X185499Y334999D01*
X123001Y13999D02*
Y13000D01*
Y13499D01*
X125500D01*
X126000Y13000D01*
Y12500D01*
X125500Y12000D01*
X126000Y14999D02*
Y15999D01*
Y15499D01*
X123001D01*
X123501Y14999D01*
X126000Y19498D02*
Y17498D01*
X124001Y19498D01*
X123501D01*
X123001Y18998D01*
Y17998D01*
X123501Y17498D01*
X32000Y84499D02*
X33000D01*
X32500D01*
Y81500D01*
X32000D01*
X33000D01*
X36498Y83999D02*
X35999Y84499D01*
X34999D01*
X34499Y83999D01*
Y82000D01*
X34999Y81500D01*
X35999D01*
X36498Y82000D01*
X39498Y81500D02*
X37498D01*
X39498Y83499D01*
Y83999D01*
X38998Y84499D01*
X37998D01*
X37498Y83999D01*
X69499Y332499D02*
X68500D01*
X68999D01*
Y330000D01*
X68500Y329500D01*
X68000D01*
X67500Y330000D01*
X70499Y329500D02*
X71499D01*
X70999D01*
Y332499D01*
X70499Y331999D01*
X261199Y65499D02*
X260200D01*
X260700D01*
Y63000D01*
X260200Y62500D01*
X259700D01*
X259200Y63000D01*
X262199Y62500D02*
X263199D01*
X262699D01*
Y65499D01*
X262199Y64999D01*
X264698D02*
X265198Y65499D01*
X266198D01*
X266698Y64999D01*
Y64499D01*
X266198Y63999D01*
X265698D01*
X266198D01*
X266698Y63500D01*
Y63000D01*
X266198Y62500D01*
X265198D01*
X264698Y63000D01*
X8500Y324500D02*
X9500D01*
X9000D01*
Y327499D01*
X8500Y326999D01*
X83000Y327000D02*
X84000D01*
X83500D01*
Y329999D01*
X83000Y329499D01*
X302300Y85199D02*
X304966D01*
X303633Y86532D02*
Y83866D01*
X306299Y86532D02*
X306965Y87199D01*
X308298D01*
X308964Y86532D01*
Y85866D01*
X308298Y85199D01*
X307632D01*
X308298D01*
X308964Y84533D01*
Y83866D01*
X308298Y83200D01*
X306965D01*
X306299Y83866D01*
X310297Y83200D02*
Y83866D01*
X310964D01*
Y83200D01*
X310297D01*
X313630Y86532D02*
X314296Y87199D01*
X315629D01*
X316296Y86532D01*
Y85866D01*
X315629Y85199D01*
X314963D01*
X315629D01*
X316296Y84533D01*
Y83866D01*
X315629Y83200D01*
X314296D01*
X313630Y83866D01*
X317628Y87199D02*
Y84533D01*
X318961Y83200D01*
X320294Y84533D01*
Y87199D01*
X289070Y61853D02*
X288570Y61353D01*
Y60353D01*
X289070Y59853D01*
X291069D01*
X291569Y60353D01*
Y61353D01*
X291069Y61853D01*
X290070D01*
Y60853D01*
X291569Y62853D02*
X288570D01*
Y64352D01*
X289070Y64852D01*
X290070D01*
X290569Y64352D01*
Y62853D01*
X288570Y65851D02*
Y66851D01*
Y66351D01*
X291569D01*
Y65851D01*
Y66851D01*
X288570Y69850D02*
Y68850D01*
X289070Y68351D01*
X291069D01*
X291569Y68850D01*
Y69850D01*
X291069Y70350D01*
X289070D01*
X288570Y69850D01*
Y73349D02*
Y71350D01*
X290070D01*
X289570Y72349D01*
Y72849D01*
X290070Y73349D01*
X291069D01*
X291569Y72849D01*
Y71850D01*
X291069Y71350D01*
X292069Y74349D02*
Y76348D01*
X291569Y77348D02*
X288570D01*
Y78847D01*
X289070Y79347D01*
X290070D01*
X290569Y78847D01*
Y77348D01*
X296944Y61853D02*
X296444Y61353D01*
Y60353D01*
X296944Y59853D01*
X298943D01*
X299443Y60353D01*
Y61353D01*
X298943Y61853D01*
X297944D01*
Y60853D01*
X299443Y62853D02*
X296444D01*
Y64352D01*
X296944Y64852D01*
X297944D01*
X298444Y64352D01*
Y62853D01*
X296444Y65851D02*
Y66851D01*
Y66351D01*
X299443D01*
Y65851D01*
Y66851D01*
X296444Y69850D02*
Y68850D01*
X296944Y68351D01*
X298943D01*
X299443Y68850D01*
Y69850D01*
X298943Y70350D01*
X296944D01*
X296444Y69850D01*
Y73349D02*
Y71350D01*
X297944D01*
X297444Y72349D01*
Y72849D01*
X297944Y73349D01*
X298943D01*
X299443Y72849D01*
Y71850D01*
X298943Y71350D01*
X299943Y74349D02*
Y76348D01*
X299443Y77348D02*
X296444D01*
X299443Y79347D01*
X296444D01*
X273322Y61853D02*
X272822Y61353D01*
Y60353D01*
X273322Y59853D01*
X275321D01*
X275821Y60353D01*
Y61353D01*
X275321Y61853D01*
X274322D01*
Y60853D01*
X275821Y62853D02*
X272822D01*
Y64352D01*
X273322Y64852D01*
X274322D01*
X274821Y64352D01*
Y62853D01*
X272822Y65851D02*
Y66851D01*
Y66351D01*
X275821D01*
Y65851D01*
Y66851D01*
X272822Y69850D02*
Y68850D01*
X273322Y68351D01*
X275321D01*
X275821Y68850D01*
Y69850D01*
X275321Y70350D01*
X273322D01*
X272822Y69850D01*
Y71350D02*
Y73349D01*
X273322D01*
X275321Y71350D01*
X275821D01*
X276321Y74349D02*
Y76348D01*
X275821Y77348D02*
X272822D01*
Y78847D01*
X273322Y79347D01*
X274322D01*
X274821Y78847D01*
Y77348D01*
X281196Y61853D02*
X280696Y61353D01*
Y60353D01*
X281196Y59853D01*
X283195D01*
X283695Y60353D01*
Y61353D01*
X283195Y61853D01*
X282196D01*
Y60853D01*
X283695Y62853D02*
X280696D01*
Y64352D01*
X281196Y64852D01*
X282196D01*
X282696Y64352D01*
Y62853D01*
X280696Y65851D02*
Y66851D01*
Y66351D01*
X283695D01*
Y65851D01*
Y66851D01*
X280696Y69850D02*
Y68850D01*
X281196Y68351D01*
X283195D01*
X283695Y68850D01*
Y69850D01*
X283195Y70350D01*
X281196D01*
X280696Y69850D01*
Y71350D02*
Y73349D01*
X281196D01*
X283195Y71350D01*
X283695D01*
X284195Y74349D02*
Y76348D01*
X283695Y77348D02*
X280696D01*
X283695Y79347D01*
X280696D01*
X309692Y61853D02*
X309192Y61353D01*
Y60353D01*
X309692Y59853D01*
X311691D01*
X312191Y60353D01*
Y61353D01*
X311691Y61853D01*
X310692D01*
Y60853D01*
X312191Y62853D02*
X309192D01*
Y64352D01*
X309692Y64852D01*
X310692D01*
X311192Y64352D01*
Y62853D01*
X309192Y65851D02*
Y66851D01*
Y66351D01*
X312191D01*
Y65851D01*
Y66851D01*
X309192Y69850D02*
Y68850D01*
X309692Y68351D01*
X311691D01*
X312191Y68850D01*
Y69850D01*
X311691Y70350D01*
X309692D01*
X309192Y69850D01*
X309692Y71350D02*
X309192Y71850D01*
Y72849D01*
X309692Y73349D01*
X310192D01*
X310692Y72849D01*
Y72349D01*
Y72849D01*
X311192Y73349D01*
X311691D01*
X312191Y72849D01*
Y71850D01*
X311691Y71350D01*
X312691Y74349D02*
Y76348D01*
X312191Y77348D02*
X309192D01*
Y78847D01*
X309692Y79347D01*
X310692D01*
X311192Y78847D01*
Y77348D01*
X317566Y61853D02*
X317066Y61353D01*
Y60353D01*
X317566Y59853D01*
X319566D01*
X320065Y60353D01*
Y61353D01*
X319566Y61853D01*
X318566D01*
Y60853D01*
X320065Y62853D02*
X317066D01*
Y64352D01*
X317566Y64852D01*
X318566D01*
X319066Y64352D01*
Y62853D01*
X317066Y65851D02*
Y66851D01*
Y66351D01*
X320065D01*
Y65851D01*
Y66851D01*
X317066Y69850D02*
Y68850D01*
X317566Y68351D01*
X319566D01*
X320065Y68850D01*
Y69850D01*
X319566Y70350D01*
X317566D01*
X317066Y69850D01*
X317566Y71350D02*
X317066Y71850D01*
Y72849D01*
X317566Y73349D01*
X318066D01*
X318566Y72849D01*
Y72349D01*
Y72849D01*
X319066Y73349D01*
X319566D01*
X320065Y72849D01*
Y71850D01*
X319566Y71350D01*
X320565Y74349D02*
Y76348D01*
X320065Y77348D02*
X317066D01*
X320065Y79347D01*
X317066D01*
X325440Y61853D02*
X324940Y61353D01*
Y60353D01*
X325440Y59853D01*
X327439D01*
X327939Y60353D01*
Y61353D01*
X327439Y61853D01*
X326440D01*
Y60853D01*
X327939Y62853D02*
X324940D01*
Y64352D01*
X325440Y64852D01*
X326440D01*
X326940Y64352D01*
Y62853D01*
X324940Y65851D02*
Y66851D01*
Y66351D01*
X327939D01*
Y65851D01*
Y66851D01*
X324940Y69850D02*
Y68850D01*
X325440Y68351D01*
X327439D01*
X327939Y68850D01*
Y69850D01*
X327439Y70350D01*
X325440D01*
X324940Y69850D01*
X327939Y71350D02*
Y72349D01*
Y71850D01*
X324940D01*
X325440Y71350D01*
X328439Y73849D02*
Y75848D01*
X327939Y76848D02*
X324940D01*
Y78347D01*
X325440Y78847D01*
X326440D01*
X326940Y78347D01*
Y76848D01*
X333314Y61853D02*
X332814Y61353D01*
Y60353D01*
X333314Y59853D01*
X335314D01*
X335813Y60353D01*
Y61353D01*
X335314Y61853D01*
X334314D01*
Y60853D01*
X335813Y62853D02*
X332814D01*
Y64352D01*
X333314Y64852D01*
X334314D01*
X334814Y64352D01*
Y62853D01*
X332814Y65851D02*
Y66851D01*
Y66351D01*
X335813D01*
Y65851D01*
Y66851D01*
X332814Y69850D02*
Y68850D01*
X333314Y68351D01*
X335314D01*
X335813Y68850D01*
Y69850D01*
X335314Y70350D01*
X333314D01*
X332814Y69850D01*
X335813Y71350D02*
Y72349D01*
Y71850D01*
X332814D01*
X333314Y71350D01*
X336313Y73849D02*
Y75848D01*
X335813Y76848D02*
X332814D01*
X335813Y78847D01*
X332814D01*
X181201Y5891D02*
X184200D01*
X183200Y6891D01*
X184200Y7891D01*
X181201D01*
X184200Y8890D02*
Y9890D01*
Y9390D01*
X181201D01*
X181701Y8890D01*
X184200Y12889D02*
X181201D01*
X182701Y11390D01*
Y13389D01*
X191201Y5891D02*
X191701D01*
X192701Y6891D01*
X191701Y7891D01*
X191201D01*
X192701Y6891D02*
X194200D01*
Y8890D02*
Y9890D01*
Y9390D01*
X191201D01*
X191701Y8890D01*
X194200Y12889D02*
X191201D01*
X192701Y11390D01*
Y13389D01*
X201201Y5891D02*
Y7891D01*
Y6891D01*
X204200D01*
Y8890D02*
Y9890D01*
Y9390D01*
X201201D01*
X201701Y8890D01*
X204200Y12889D02*
X201201D01*
X202700Y11390D01*
Y13389D01*
X211201Y5891D02*
Y7891D01*
Y6891D01*
X214200D01*
Y8890D02*
Y9890D01*
Y9390D01*
X211201D01*
X211701Y8890D01*
X211201Y13389D02*
Y11390D01*
X212701D01*
X212201Y12389D01*
Y12889D01*
X212701Y13389D01*
X213700D01*
X214200Y12889D01*
Y11889D01*
X213700Y11390D01*
X187401Y7891D02*
X186901Y7391D01*
Y6391D01*
X187401Y5891D01*
X189400D01*
X189900Y6391D01*
Y7391D01*
X189400Y7891D01*
X188400D01*
Y6891D01*
X189900Y8890D02*
X186901D01*
Y10390D01*
X187401Y10890D01*
X188400D01*
X188900Y10390D01*
Y8890D01*
X186901Y11889D02*
Y12889D01*
Y12389D01*
X189900D01*
Y11889D01*
Y12889D01*
X186901Y15888D02*
Y14888D01*
X187401Y14389D01*
X189400D01*
X189900Y14888D01*
Y15888D01*
X189400Y16388D01*
X187401D01*
X186901Y15888D01*
Y17388D02*
Y19387D01*
X187401D01*
X189400Y17388D01*
X189900D01*
X190400Y20387D02*
Y22386D01*
X189900Y23386D02*
X186901D01*
X189900Y25385D01*
X186901D01*
X207401Y7891D02*
X206901Y7391D01*
Y6391D01*
X207401Y5891D01*
X209400D01*
X209900Y6391D01*
Y7391D01*
X209400Y7891D01*
X208401D01*
Y6891D01*
X209900Y8890D02*
X206901D01*
Y10390D01*
X207401Y10890D01*
X208401D01*
X208900Y10390D01*
Y8890D01*
X206901Y11889D02*
Y12889D01*
Y12389D01*
X209900D01*
Y11889D01*
Y12889D01*
X206901Y15888D02*
Y14888D01*
X207401Y14389D01*
X209400D01*
X209900Y14888D01*
Y15888D01*
X209400Y16388D01*
X207401D01*
X206901Y15888D01*
Y19387D02*
Y17388D01*
X208401D01*
X207901Y18387D01*
Y18887D01*
X208401Y19387D01*
X209400D01*
X209900Y18887D01*
Y17887D01*
X209400Y17388D01*
X210400Y20387D02*
Y22386D01*
X209900Y23386D02*
X206901D01*
X209900Y25385D01*
X206901D01*
X197401Y7891D02*
X196901Y7391D01*
Y6391D01*
X197401Y5891D01*
X199400D01*
X199900Y6391D01*
Y7391D01*
X199400Y7891D01*
X198400D01*
Y6891D01*
X199900Y8890D02*
X196901D01*
Y10390D01*
X197401Y10890D01*
X198400D01*
X198900Y10390D01*
Y8890D01*
X196901Y11889D02*
Y12889D01*
Y12389D01*
X199900D01*
Y11889D01*
Y12889D01*
X196901Y15888D02*
Y14888D01*
X197401Y14389D01*
X199400D01*
X199900Y14888D01*
Y15888D01*
X199400Y16388D01*
X197401D01*
X196901Y15888D01*
Y19387D02*
Y17388D01*
X198400D01*
X197901Y18387D01*
Y18887D01*
X198400Y19387D01*
X199400D01*
X199900Y18887D01*
Y17887D01*
X199400Y17388D01*
X200400Y20387D02*
Y22386D01*
X199900Y23386D02*
X196901D01*
Y24885D01*
X197401Y25385D01*
X198400D01*
X198900Y24885D01*
Y23386D01*
X177401Y7891D02*
X176901Y7391D01*
Y6391D01*
X177401Y5891D01*
X179400D01*
X179900Y6391D01*
Y7391D01*
X179400Y7891D01*
X178401D01*
Y6891D01*
X179900Y8890D02*
X176901D01*
Y10390D01*
X177401Y10890D01*
X178401D01*
X178900Y10390D01*
Y8890D01*
X176901Y11889D02*
Y12889D01*
Y12389D01*
X179900D01*
Y11889D01*
Y12889D01*
X176901Y15888D02*
Y14888D01*
X177401Y14389D01*
X179400D01*
X179900Y14888D01*
Y15888D01*
X179400Y16388D01*
X177401D01*
X176901Y15888D01*
Y17388D02*
Y19387D01*
X177401D01*
X179400Y17388D01*
X179900D01*
X180400Y20387D02*
Y22386D01*
X179900Y23386D02*
X176901D01*
Y24885D01*
X177401Y25385D01*
X178401D01*
X178900Y24885D01*
Y23386D01*
X217151Y7799D02*
X216651Y7299D01*
Y6300D01*
X217151Y5800D01*
X219150D01*
X219650Y6300D01*
Y7299D01*
X219150Y7799D01*
X218151D01*
Y6799D01*
X219650Y8799D02*
X216651D01*
Y10298D01*
X217151Y10798D01*
X218151D01*
X218651Y10298D01*
Y8799D01*
X216651Y11798D02*
Y12798D01*
Y12298D01*
X219650D01*
Y11798D01*
Y12798D01*
X216651Y15797D02*
Y14797D01*
X217151Y14297D01*
X219150D01*
X219650Y14797D01*
Y15797D01*
X219150Y16296D01*
X217151D01*
X216651Y15797D01*
X217151Y17296D02*
X216651Y17796D01*
Y18796D01*
X217151Y19296D01*
X217651D01*
X218151Y18796D01*
Y18296D01*
Y18796D01*
X218651Y19296D01*
X219150D01*
X219650Y18796D01*
Y17796D01*
X219150Y17296D01*
X220150Y20295D02*
Y22295D01*
X219650Y23294D02*
X216651D01*
Y24794D01*
X217151Y25293D01*
X218151D01*
X218651Y24794D01*
Y23294D01*
X227151Y7799D02*
X226651Y7299D01*
Y6300D01*
X227151Y5800D01*
X229151D01*
X229650Y6300D01*
Y7299D01*
X229151Y7799D01*
X228151D01*
Y6799D01*
X229650Y8799D02*
X226651D01*
Y10298D01*
X227151Y10798D01*
X228151D01*
X228651Y10298D01*
Y8799D01*
X226651Y11798D02*
Y12798D01*
Y12298D01*
X229650D01*
Y11798D01*
Y12798D01*
X226651Y15797D02*
Y14797D01*
X227151Y14297D01*
X229151D01*
X229650Y14797D01*
Y15797D01*
X229151Y16296D01*
X227151D01*
X226651Y15797D01*
X227151Y17296D02*
X226651Y17796D01*
Y18796D01*
X227151Y19296D01*
X227651D01*
X228151Y18796D01*
Y18296D01*
Y18796D01*
X228651Y19296D01*
X229151D01*
X229650Y18796D01*
Y17796D01*
X229151Y17296D01*
X230150Y20295D02*
Y22295D01*
X229650Y23294D02*
X226651D01*
X229650Y25293D01*
X226651D01*
X237151Y7799D02*
X236651Y7299D01*
Y6300D01*
X237151Y5800D01*
X239151D01*
X239650Y6300D01*
Y7299D01*
X239151Y7799D01*
X238151D01*
Y6799D01*
X239650Y8799D02*
X236651D01*
Y10298D01*
X237151Y10798D01*
X238151D01*
X238651Y10298D01*
Y8799D01*
X236651Y11798D02*
Y12798D01*
Y12298D01*
X239650D01*
Y11798D01*
Y12798D01*
X236651Y15797D02*
Y14797D01*
X237151Y14297D01*
X239151D01*
X239650Y14797D01*
Y15797D01*
X239151Y16296D01*
X237151D01*
X236651Y15797D01*
X239650Y17296D02*
Y18296D01*
Y17796D01*
X236651D01*
X237151Y17296D01*
X240150Y19795D02*
Y21795D01*
X239650Y22794D02*
X236651D01*
Y24294D01*
X237151Y24794D01*
X238151D01*
X238651Y24294D01*
Y22794D01*
X247151Y7799D02*
X246651Y7299D01*
Y6300D01*
X247151Y5800D01*
X249150D01*
X249650Y6300D01*
Y7299D01*
X249150Y7799D01*
X248151D01*
Y6799D01*
X249650Y8799D02*
X246651D01*
Y10298D01*
X247151Y10798D01*
X248151D01*
X248651Y10298D01*
Y8799D01*
X246651Y11798D02*
Y12798D01*
Y12298D01*
X249650D01*
Y11798D01*
Y12798D01*
X246651Y15797D02*
Y14797D01*
X247151Y14297D01*
X249150D01*
X249650Y14797D01*
Y15797D01*
X249150Y16296D01*
X247151D01*
X246651Y15797D01*
X249650Y17296D02*
Y18296D01*
Y17796D01*
X246651D01*
X247151Y17296D01*
X250150Y19795D02*
Y21795D01*
X249650Y22794D02*
X246651D01*
X249650Y24794D01*
X246651D01*
X250651Y5800D02*
X253650D01*
X252651Y6799D01*
X253650Y7799D01*
X250651D01*
X253650Y8799D02*
Y9799D01*
Y9299D01*
X250651D01*
X251151Y8799D01*
X250651Y13297D02*
X251151Y12298D01*
X252151Y11298D01*
X253151D01*
X253650Y11798D01*
Y12798D01*
X253151Y13297D01*
X252651D01*
X252151Y12798D01*
Y11298D01*
X240651Y5800D02*
X242651D01*
X243650Y6799D01*
X242651Y7799D01*
X240651D01*
X243650Y8799D02*
Y9799D01*
Y9299D01*
X240651D01*
X241151Y8799D01*
X240651Y13297D02*
X241151Y12298D01*
X242151Y11298D01*
X243150D01*
X243650Y11798D01*
Y12798D01*
X243150Y13297D01*
X242651D01*
X242151Y12798D01*
Y11298D01*
X230651Y5800D02*
X233151D01*
X233650Y6300D01*
Y7299D01*
X233151Y7799D01*
X230651D01*
X233650Y8799D02*
Y9799D01*
Y9299D01*
X230651D01*
X231151Y8799D01*
X233151Y11298D02*
X233650Y11798D01*
Y12798D01*
X233151Y13297D01*
X231151D01*
X230651Y12798D01*
Y11798D01*
X231151Y11298D01*
X231651D01*
X232151Y11798D01*
Y13297D01*
X220651Y5800D02*
X223150D01*
X223650Y6300D01*
Y7299D01*
X223150Y7799D01*
X220651D01*
X223650Y8799D02*
Y9799D01*
Y9299D01*
X220651D01*
X221151Y8799D01*
Y11298D02*
X220651Y11798D01*
Y12798D01*
X221151Y13297D01*
X221651D01*
X222151Y12798D01*
X222651Y13297D01*
X223150D01*
X223650Y12798D01*
Y11798D01*
X223150Y11298D01*
X222651D01*
X222151Y11798D01*
X221651Y11298D01*
X221151D01*
X222151Y11798D02*
Y12798D01*
X206701Y53412D02*
X206201Y52912D01*
Y51912D01*
X206701Y51412D01*
X208700D01*
X209200Y51912D01*
Y52912D01*
X208700Y53412D01*
X207700D01*
Y52412D01*
X209200Y54412D02*
X206201D01*
Y55911D01*
X206701Y56411D01*
X207700D01*
X208200Y55911D01*
Y54412D01*
X206201Y57411D02*
Y58410D01*
Y57911D01*
X209200D01*
Y57411D01*
Y58410D01*
X206201Y61409D02*
Y60410D01*
X206701Y59910D01*
X208700D01*
X209200Y60410D01*
Y61409D01*
X208700Y61909D01*
X206701D01*
X206201Y61409D01*
X209200Y62909D02*
Y63908D01*
Y63409D01*
X206201D01*
X206701Y62909D01*
Y65408D02*
X206201Y65908D01*
Y66908D01*
X206701Y67407D01*
X207201D01*
X207700Y66908D01*
Y66408D01*
Y66908D01*
X208200Y67407D01*
X208700D01*
X209200Y66908D01*
Y65908D01*
X208700Y65408D01*
X209700Y68407D02*
Y70406D01*
X209200Y71406D02*
X206201D01*
X209200Y73405D01*
X206201D01*
X196701Y53412D02*
X196201Y52912D01*
Y51912D01*
X196701Y51412D01*
X198700D01*
X199200Y51912D01*
Y52912D01*
X198700Y53412D01*
X197701D01*
Y52412D01*
X199200Y54412D02*
X196201D01*
Y55911D01*
X196701Y56411D01*
X197701D01*
X198200Y55911D01*
Y54412D01*
X196201Y57411D02*
Y58410D01*
Y57911D01*
X199200D01*
Y57411D01*
Y58410D01*
X196201Y61409D02*
Y60410D01*
X196701Y59910D01*
X198700D01*
X199200Y60410D01*
Y61409D01*
X198700Y61909D01*
X196701D01*
X196201Y61409D01*
X199200Y62909D02*
Y63908D01*
Y63409D01*
X196201D01*
X196701Y62909D01*
Y65408D02*
X196201Y65908D01*
Y66908D01*
X196701Y67407D01*
X197201D01*
X197701Y66908D01*
Y66408D01*
Y66908D01*
X198200Y67407D01*
X198700D01*
X199200Y66908D01*
Y65908D01*
X198700Y65408D01*
X199700Y68407D02*
Y70406D01*
X199200Y71406D02*
X196201D01*
Y72906D01*
X196701Y73405D01*
X197701D01*
X198200Y72906D01*
Y71406D01*
X186701Y53412D02*
X186201Y52912D01*
Y51912D01*
X186701Y51412D01*
X188700D01*
X189200Y51912D01*
Y52912D01*
X188700Y53412D01*
X187700D01*
Y52412D01*
X189200Y54412D02*
X186201D01*
Y55911D01*
X186701Y56411D01*
X187700D01*
X188200Y55911D01*
Y54412D01*
X186201Y57411D02*
Y58410D01*
Y57911D01*
X189200D01*
Y57411D01*
Y58410D01*
X186201Y61409D02*
Y60410D01*
X186701Y59910D01*
X188700D01*
X189200Y60410D01*
Y61409D01*
X188700Y61909D01*
X186701D01*
X186201Y61409D01*
X189200Y62909D02*
Y63908D01*
Y63409D01*
X186201D01*
X186701Y62909D01*
X186201Y67407D02*
Y65408D01*
X187700D01*
X187201Y66408D01*
Y66908D01*
X187700Y67407D01*
X188700D01*
X189200Y66908D01*
Y65908D01*
X188700Y65408D01*
X189700Y68407D02*
Y70406D01*
X189200Y71406D02*
X186201D01*
X189200Y73405D01*
X186201D01*
X176701Y53412D02*
X176201Y52912D01*
Y51912D01*
X176701Y51412D01*
X178700D01*
X179200Y51912D01*
Y52912D01*
X178700Y53412D01*
X177700D01*
Y52412D01*
X179200Y54412D02*
X176201D01*
Y55911D01*
X176701Y56411D01*
X177700D01*
X178200Y55911D01*
Y54412D01*
X176201Y57411D02*
Y58410D01*
Y57911D01*
X179200D01*
Y57411D01*
Y58410D01*
X176201Y61409D02*
Y60410D01*
X176701Y59910D01*
X178700D01*
X179200Y60410D01*
Y61409D01*
X178700Y61909D01*
X176701D01*
X176201Y61409D01*
X179200Y62909D02*
Y63908D01*
Y63409D01*
X176201D01*
X176701Y62909D01*
X176201Y67407D02*
Y65408D01*
X177700D01*
X177201Y66408D01*
Y66908D01*
X177700Y67407D01*
X178700D01*
X179200Y66908D01*
Y65908D01*
X178700Y65408D01*
X179700Y68407D02*
Y70406D01*
X179200Y71406D02*
X176201D01*
Y72906D01*
X176701Y73405D01*
X177700D01*
X178200Y72906D01*
Y71406D01*
X166401Y53173D02*
X165901Y52674D01*
Y51674D01*
X166401Y51174D01*
X168400D01*
X168900Y51674D01*
Y52674D01*
X168400Y53173D01*
X167401D01*
Y52174D01*
X168900Y54173D02*
X165901D01*
Y55673D01*
X166401Y56172D01*
X167401D01*
X167900Y55673D01*
Y54173D01*
X165901Y57172D02*
Y58172D01*
Y57672D01*
X168900D01*
Y57172D01*
Y58172D01*
X165901Y61171D02*
Y60171D01*
X166401Y59671D01*
X168400D01*
X168900Y60171D01*
Y61171D01*
X168400Y61671D01*
X166401D01*
X165901Y61171D01*
X168900Y62670D02*
Y63670D01*
Y63170D01*
X165901D01*
X166401Y62670D01*
X165901Y65170D02*
Y67169D01*
X166401D01*
X168400Y65170D01*
X168900D01*
X169400Y68169D02*
Y70168D01*
X168900Y71168D02*
X165901D01*
X168900Y73167D01*
X165901D01*
X156401Y53173D02*
X155901Y52674D01*
Y51674D01*
X156401Y51174D01*
X158400D01*
X158900Y51674D01*
Y52674D01*
X158400Y53173D01*
X157401D01*
Y52174D01*
X158900Y54173D02*
X155901D01*
Y55673D01*
X156401Y56172D01*
X157401D01*
X157900Y55673D01*
Y54173D01*
X155901Y57172D02*
Y58172D01*
Y57672D01*
X158900D01*
Y57172D01*
Y58172D01*
X155901Y61171D02*
Y60171D01*
X156401Y59671D01*
X158400D01*
X158900Y60171D01*
Y61171D01*
X158400Y61671D01*
X156401D01*
X155901Y61171D01*
X158900Y62670D02*
Y63670D01*
Y63170D01*
X155901D01*
X156401Y62670D01*
X155901Y65170D02*
Y67169D01*
X156401D01*
X158400Y65170D01*
X158900D01*
X159400Y68169D02*
Y70168D01*
X158900Y71168D02*
X155901D01*
Y72667D01*
X156401Y73167D01*
X157401D01*
X157900Y72667D01*
Y71168D01*
X146401Y53173D02*
X145901Y52674D01*
Y51674D01*
X146401Y51174D01*
X148400D01*
X148900Y51674D01*
Y52674D01*
X148400Y53173D01*
X147400D01*
Y52174D01*
X148900Y54173D02*
X145901D01*
Y55673D01*
X146401Y56172D01*
X147400D01*
X147900Y55673D01*
Y54173D01*
X145901Y57172D02*
Y58172D01*
Y57672D01*
X148900D01*
Y57172D01*
Y58172D01*
X145901Y61171D02*
Y60171D01*
X146401Y59671D01*
X148400D01*
X148900Y60171D01*
Y61171D01*
X148400Y61671D01*
X146401D01*
X145901Y61171D01*
X148900Y62670D02*
Y63670D01*
Y63170D01*
X145901D01*
X146401Y62670D01*
X148400Y65170D02*
X148900Y65669D01*
Y66669D01*
X148400Y67169D01*
X146401D01*
X145901Y66669D01*
Y65669D01*
X146401Y65170D01*
X146901D01*
X147400Y65669D01*
Y67169D01*
X149400Y68169D02*
Y70168D01*
X148900Y71168D02*
X145901D01*
X148900Y73167D01*
X145901D01*
X136401Y52673D02*
X135901Y52174D01*
Y51174D01*
X136401Y50674D01*
X138400D01*
X138900Y51174D01*
Y52174D01*
X138400Y52673D01*
X137400D01*
Y51674D01*
X138900Y53673D02*
X135901D01*
Y55173D01*
X136401Y55672D01*
X137400D01*
X137900Y55173D01*
Y53673D01*
X135901Y56672D02*
Y57672D01*
Y57172D01*
X138900D01*
Y56672D01*
Y57672D01*
X135901Y60671D02*
Y59671D01*
X136401Y59171D01*
X138400D01*
X138900Y59671D01*
Y60671D01*
X138400Y61171D01*
X136401D01*
X135901Y60671D01*
X138900Y62170D02*
Y63170D01*
Y62670D01*
X135901D01*
X136401Y62170D01*
X138400Y64670D02*
X138900Y65169D01*
Y66169D01*
X138400Y66669D01*
X136401D01*
X135901Y66169D01*
Y65169D01*
X136401Y64670D01*
X136901D01*
X137400Y65169D01*
Y66669D01*
X139400Y67669D02*
Y69668D01*
X138900Y70668D02*
X135901D01*
Y72167D01*
X136401Y72667D01*
X137400D01*
X137900Y72167D01*
Y70668D01*
X210201Y51412D02*
X210701D01*
X211701Y52412D01*
X210701Y53412D01*
X210201D01*
X211701Y52412D02*
X213200D01*
Y54412D02*
Y55411D01*
Y54911D01*
X210201D01*
X210701Y54412D01*
X213200Y56911D02*
Y57911D01*
Y57411D01*
X210201D01*
X210701Y56911D01*
X200201Y51412D02*
X203200D01*
X202200Y52412D01*
X203200Y53412D01*
X200201D01*
X203200Y54412D02*
Y55411D01*
Y54911D01*
X200201D01*
X200701Y54412D01*
X203200Y56911D02*
Y57911D01*
Y57411D01*
X200201D01*
X200701Y56911D01*
X190201Y51412D02*
X192700D01*
X193200Y51912D01*
Y52912D01*
X192700Y53412D01*
X190201D01*
X193200Y54412D02*
Y55411D01*
Y54911D01*
X190201D01*
X190701Y54412D01*
Y56911D02*
X190201Y57411D01*
Y58410D01*
X190701Y58910D01*
X192700D01*
X193200Y58410D01*
Y57411D01*
X192700Y56911D01*
X190701D01*
X180201Y51412D02*
Y53412D01*
Y52412D01*
X183200D01*
X182700Y54412D02*
X183200Y54911D01*
Y55911D01*
X182700Y56411D01*
X180701D01*
X180201Y55911D01*
Y54911D01*
X180701Y54412D01*
X181201D01*
X181701Y54911D01*
Y56411D01*
X169901Y51174D02*
X172400D01*
X172900Y51674D01*
Y52674D01*
X172400Y53173D01*
X169901D01*
X170401Y54173D02*
X169901Y54673D01*
Y55673D01*
X170401Y56172D01*
X170901D01*
X171400Y55673D01*
X171900Y56172D01*
X172400D01*
X172900Y55673D01*
Y54673D01*
X172400Y54173D01*
X171900D01*
X171400Y54673D01*
X170901Y54173D01*
X170401D01*
X171400Y54673D02*
Y55673D01*
X159901Y51174D02*
X162400D01*
X162900Y51674D01*
Y52674D01*
X162400Y53173D01*
X159901D01*
X162400Y54173D02*
X162900Y54673D01*
Y55673D01*
X162400Y56172D01*
X160401D01*
X159901Y55673D01*
Y54673D01*
X160401Y54173D01*
X160901D01*
X161400Y54673D01*
Y56172D01*
X149901Y51174D02*
X150401D01*
X151400Y52174D01*
X150401Y53173D01*
X149901D01*
X151400Y52174D02*
X152900D01*
X150401Y54173D02*
X149901Y54673D01*
Y55673D01*
X150401Y56172D01*
X150901D01*
X151400Y55673D01*
X151900Y56172D01*
X152400D01*
X152900Y55673D01*
Y54673D01*
X152400Y54173D01*
X151900D01*
X151400Y54673D01*
X150901Y54173D01*
X150401D01*
X151400Y54673D02*
Y55673D01*
X139901Y50674D02*
X140401D01*
X141401Y51674D01*
X140401Y52673D01*
X139901D01*
X141401Y51674D02*
X142900D01*
X142400Y53673D02*
X142900Y54173D01*
Y55173D01*
X142400Y55672D01*
X140401D01*
X139901Y55173D01*
Y54173D01*
X140401Y53673D01*
X140901D01*
X141401Y54173D01*
Y55672D01*
X167101Y8048D02*
X166601Y7548D01*
Y6549D01*
X167101Y6049D01*
X169100D01*
X169600Y6549D01*
Y7548D01*
X169100Y8048D01*
X168100D01*
Y7049D01*
X169600Y9048D02*
X166601D01*
Y10548D01*
X167101Y11047D01*
X168100D01*
X168600Y10548D01*
Y9048D01*
X166601Y12047D02*
Y13047D01*
Y12547D01*
X169600D01*
Y12047D01*
Y13047D01*
X166601Y16046D02*
Y15046D01*
X167101Y14546D01*
X169100D01*
X169600Y15046D01*
Y16046D01*
X169100Y16546D01*
X167101D01*
X166601Y16046D01*
X169100Y17545D02*
X169600Y18045D01*
Y19045D01*
X169100Y19545D01*
X167101D01*
X166601Y19045D01*
Y18045D01*
X167101Y17545D01*
X167601D01*
X168100Y18045D01*
Y19545D01*
X170100Y20544D02*
Y22544D01*
X169600Y23543D02*
X166601D01*
X169600Y25543D01*
X166601D01*
X157101Y8048D02*
X156601Y7548D01*
Y6549D01*
X157101Y6049D01*
X159100D01*
X159600Y6549D01*
Y7548D01*
X159100Y8048D01*
X158100D01*
Y7049D01*
X159600Y9048D02*
X156601D01*
Y10548D01*
X157101Y11047D01*
X158100D01*
X158600Y10548D01*
Y9048D01*
X156601Y12047D02*
Y13047D01*
Y12547D01*
X159600D01*
Y12047D01*
Y13047D01*
X156601Y16046D02*
Y15046D01*
X157101Y14546D01*
X159100D01*
X159600Y15046D01*
Y16046D01*
X159100Y16546D01*
X157101D01*
X156601Y16046D01*
X159100Y17545D02*
X159600Y18045D01*
Y19045D01*
X159100Y19545D01*
X157101D01*
X156601Y19045D01*
Y18045D01*
X157101Y17545D01*
X157600D01*
X158100Y18045D01*
Y19545D01*
X160100Y20544D02*
Y22544D01*
X159600Y23543D02*
X156601D01*
Y25043D01*
X157101Y25543D01*
X158100D01*
X158600Y25043D01*
Y23543D01*
X147101Y8048D02*
X146601Y7548D01*
Y6549D01*
X147101Y6049D01*
X149100D01*
X149600Y6549D01*
Y7548D01*
X149100Y8048D01*
X148100D01*
Y7049D01*
X149600Y9048D02*
X146601D01*
Y10548D01*
X147101Y11047D01*
X148100D01*
X148600Y10548D01*
Y9048D01*
X146601Y12047D02*
Y13047D01*
Y12547D01*
X149600D01*
Y12047D01*
Y13047D01*
X146601Y16046D02*
Y15046D01*
X147101Y14546D01*
X149100D01*
X149600Y15046D01*
Y16046D01*
X149100Y16546D01*
X147101D01*
X146601Y16046D01*
X149600Y17545D02*
Y18545D01*
Y18045D01*
X146601D01*
X147101Y17545D01*
X149600Y20044D02*
Y21044D01*
Y20544D01*
X146601D01*
X147101Y20044D01*
X150100Y22544D02*
Y24543D01*
X149600Y25543D02*
X146601D01*
X149600Y27542D01*
X146601D01*
X137101Y8048D02*
X136601Y7548D01*
Y6549D01*
X137101Y6049D01*
X139100D01*
X139600Y6549D01*
Y7548D01*
X139100Y8048D01*
X138100D01*
Y7049D01*
X139600Y9048D02*
X136601D01*
Y10548D01*
X137101Y11047D01*
X138100D01*
X138600Y10548D01*
Y9048D01*
X136601Y12047D02*
Y13047D01*
Y12547D01*
X139600D01*
Y12047D01*
Y13047D01*
X136601Y16046D02*
Y15046D01*
X137101Y14546D01*
X139100D01*
X139600Y15046D01*
Y16046D01*
X139100Y16546D01*
X137101D01*
X136601Y16046D01*
X139600Y17545D02*
Y18545D01*
Y18045D01*
X136601D01*
X137101Y17545D01*
X139600Y20044D02*
Y21044D01*
Y20544D01*
X136601D01*
X137101Y20044D01*
X140100Y22544D02*
Y24543D01*
X139600Y25543D02*
X136601D01*
Y27042D01*
X137101Y27542D01*
X138100D01*
X138600Y27042D01*
Y25543D01*
X170601Y6049D02*
X173600D01*
X172600Y7049D01*
X173600Y8048D01*
X170601D01*
X173600Y9048D02*
Y10048D01*
Y9548D01*
X170601D01*
X171101Y9048D01*
Y11547D02*
X170601Y12047D01*
Y13047D01*
X171101Y13546D01*
X171600D01*
X172100Y13047D01*
Y12547D01*
Y13047D01*
X172600Y13546D01*
X173100D01*
X173600Y13047D01*
Y12047D01*
X173100Y11547D01*
X160601Y6049D02*
X162600D01*
X163600Y7049D01*
X162600Y8048D01*
X160601D01*
X163600Y9048D02*
Y10048D01*
Y9548D01*
X160601D01*
X161101Y9048D01*
X163600Y13546D02*
Y11547D01*
X161600Y13546D01*
X161101D01*
X160601Y13047D01*
Y12047D01*
X161101Y11547D01*
X150601Y6049D02*
Y8048D01*
Y7049D01*
X153600D01*
Y9048D02*
Y10048D01*
Y9548D01*
X150601D01*
X151101Y9048D01*
Y11547D02*
X150601Y12047D01*
Y13047D01*
X151101Y13546D01*
X153100D01*
X153600Y13047D01*
Y12047D01*
X153100Y11547D01*
X151101D01*
X140601Y6049D02*
Y8048D01*
Y7049D01*
X143600D01*
Y9048D02*
Y10048D01*
Y9548D01*
X140601D01*
X141101Y9048D01*
X143600Y11547D02*
Y12547D01*
Y12047D01*
X140601D01*
X141101Y11547D01*
X115445Y25142D02*
X116445D01*
X115945D01*
Y28142D01*
X115445Y27642D01*
X275000Y93499D02*
X277666D01*
X276333Y94832D02*
Y92166D01*
X278999Y94832D02*
X279665Y95499D01*
X280998D01*
X281664Y94832D01*
Y94166D01*
X280998Y93499D01*
X280332D01*
X280998D01*
X281664Y92833D01*
Y92166D01*
X280998Y91500D01*
X279665D01*
X278999Y92166D01*
X282997Y91500D02*
Y92166D01*
X283664D01*
Y91500D01*
X282997D01*
X286330Y94832D02*
X286996Y95499D01*
X288329D01*
X288996Y94832D01*
Y94166D01*
X288329Y93499D01*
X287663D01*
X288329D01*
X288996Y92833D01*
Y92166D01*
X288329Y91500D01*
X286996D01*
X286330Y92166D01*
X290328Y95499D02*
Y92833D01*
X291661Y91500D01*
X292994Y92833D01*
Y95499D01*
X277666Y87332D02*
X276999Y87999D01*
X275666D01*
X275000Y87332D01*
Y84666D01*
X275666Y84000D01*
X276999D01*
X277666Y84666D01*
Y85999D01*
X276333D01*
X278999Y84000D02*
Y87999D01*
X281664Y84000D01*
Y87999D01*
X282997D02*
Y84000D01*
X284997D01*
X285663Y84666D01*
Y87332D01*
X284997Y87999D01*
X282997D01*
X289099Y102999D02*
X288100D01*
X288599D01*
Y100500D01*
X288100Y100000D01*
X287600D01*
X287100Y100500D01*
X290099Y100000D02*
X291099D01*
X290599D01*
Y102999D01*
X290099Y102499D01*
X292598D02*
X293098Y102999D01*
X294098D01*
X294598Y102499D01*
Y101999D01*
X294098Y101499D01*
X293598D01*
X294098D01*
X294598Y101000D01*
Y100500D01*
X294098Y100000D01*
X293098D01*
X292598Y100500D01*
D54*
X68961Y13511D02*
X64963D01*
Y10512D01*
X66962D01*
X64963D01*
Y7513D01*
X70961D02*
Y13511D01*
X73960D01*
X74959Y12511D01*
Y10512D01*
X73960Y9512D01*
X70961D01*
X80957Y12511D02*
X79958Y13511D01*
X77958D01*
X76959Y12511D01*
Y8512D01*
X77958Y7513D01*
X79958D01*
X80957Y8512D01*
M02*
