%FSLAX25Y25*%
%MOIN*%
G70*
G01*
G75*
%ADD10R,0.03000X0.03000*%
%ADD11R,0.10039X0.08858*%
%ADD12R,0.03000X0.03000*%
%ADD13R,0.01102X0.07087*%
%ADD14R,0.01201X0.05701*%
%ADD15R,0.01673X0.01969*%
%ADD16R,0.00984X0.01969*%
%ADD17R,0.00984X0.04331*%
%ADD18R,0.06693X0.05906*%
%ADD19R,0.01575X0.01969*%
%ADD20C,0.01600*%
%ADD21C,0.01000*%
%ADD22C,0.00800*%
%ADD23C,0.01200*%
%ADD24C,0.03150*%
%ADD25C,0.07087*%
%ADD26R,0.07087X0.07087*%
%ADD27C,0.07087*%
%ADD28R,0.07087X0.07087*%
%ADD29R,0.25000X0.25000*%
%ADD30C,0.06000*%
%ADD31R,0.06000X0.06000*%
%ADD32O,0.04331X0.07087*%
%ADD33C,0.02047*%
%ADD34C,0.02000*%
%ADD35C,0.01800*%
%ADD36C,0.04000*%
%ADD37C,0.05600*%
G04:AMPARAMS|DCode=38|XSize=90.157mil|YSize=90.157mil|CornerRadius=0mil|HoleSize=0mil|Usage=FLASHONLY|Rotation=0.000|XOffset=0mil|YOffset=0mil|HoleType=Round|Shape=Relief|Width=10mil|Gap=15mil|Entries=4|*
%AMTHD38*
7,0,0,0.09016,0.06016,0.01000,45*
%
%ADD38THD38*%
%ADD39C,0.05616*%
%ADD40C,0.05616*%
%ADD41C,0.14100*%
G04:AMPARAMS|DCode=42|XSize=80mil|YSize=80mil|CornerRadius=0mil|HoleSize=0mil|Usage=FLASHONLY|Rotation=0.000|XOffset=0mil|YOffset=0mil|HoleType=Round|Shape=Relief|Width=10mil|Gap=15mil|Entries=4|*
%AMTHD42*
7,0,0,0.08000,0.05000,0.01000,45*
%
%ADD42THD42*%
%ADD43C,0.04600*%
%ADD44C,0.03962*%
G04:AMPARAMS|DCode=45|XSize=73.622mil|YSize=73.622mil|CornerRadius=0mil|HoleSize=0mil|Usage=FLASHONLY|Rotation=0.000|XOffset=0mil|YOffset=0mil|HoleType=Round|Shape=Relief|Width=10mil|Gap=15mil|Entries=4|*
%AMTHD45*
7,0,0,0.07362,0.04362,0.01000,45*
%
%ADD45THD45*%
%ADD46C,0.02387*%
%ADD47C,0.02191*%
D10*
X91484Y321500D02*
D03*
X85984D02*
D03*
X317500Y91500D02*
D03*
X323000D02*
D03*
X118813Y35113D02*
D03*
X124313D02*
D03*
X118813Y55613D02*
D03*
X124313D02*
D03*
X18678Y36700D02*
D03*
X13178D02*
D03*
Y24700D02*
D03*
X18678D02*
D03*
X305500Y91500D02*
D03*
X311000D02*
D03*
X118813Y50613D02*
D03*
X124313D02*
D03*
X13178Y30700D02*
D03*
X18678D02*
D03*
D11*
X193650Y94500D02*
D03*
X174950D02*
D03*
D12*
X44300Y83300D02*
D03*
Y88800D02*
D03*
X334274Y35551D02*
D03*
Y30051D02*
D03*
X326400Y35551D02*
D03*
Y30051D02*
D03*
X318526Y35551D02*
D03*
Y30051D02*
D03*
X310652Y35551D02*
D03*
Y30051D02*
D03*
X297904Y35551D02*
D03*
Y30051D02*
D03*
X290030Y35551D02*
D03*
Y30051D02*
D03*
X282156Y35551D02*
D03*
Y30051D02*
D03*
X274282Y35551D02*
D03*
Y30051D02*
D03*
X59600Y148900D02*
D03*
Y143400D02*
D03*
X53500Y148900D02*
D03*
Y143400D02*
D03*
X124313Y40113D02*
D03*
Y45613D02*
D03*
X118813Y40113D02*
D03*
Y45613D02*
D03*
X65662Y148900D02*
D03*
Y143400D02*
D03*
X13278Y48200D02*
D03*
Y42700D02*
D03*
X334274Y15079D02*
D03*
Y9579D02*
D03*
X326400Y15079D02*
D03*
Y9579D02*
D03*
X318526Y15079D02*
D03*
Y9579D02*
D03*
X310652Y15079D02*
D03*
Y9579D02*
D03*
X297904Y15079D02*
D03*
Y9579D02*
D03*
X290030Y15079D02*
D03*
Y9579D02*
D03*
X282156Y15079D02*
D03*
Y9579D02*
D03*
X274282Y15079D02*
D03*
Y9579D02*
D03*
X61600Y47000D02*
D03*
Y41500D02*
D03*
X44300Y47000D02*
D03*
Y41500D02*
D03*
X102500Y47000D02*
D03*
Y41500D02*
D03*
X85200Y47000D02*
D03*
Y41500D02*
D03*
Y83200D02*
D03*
Y88700D02*
D03*
X102600Y83200D02*
D03*
Y88700D02*
D03*
X61600Y83300D02*
D03*
Y88800D02*
D03*
D13*
X34804Y54300D02*
D03*
X36379D02*
D03*
X37954D02*
D03*
X39529D02*
D03*
X41104D02*
D03*
X42678D02*
D03*
X44253D02*
D03*
X45828D02*
D03*
X47403D02*
D03*
X48978D02*
D03*
X50552D02*
D03*
X52127D02*
D03*
X53702D02*
D03*
X55277D02*
D03*
X56852D02*
D03*
X58426D02*
D03*
X60001D02*
D03*
X61576D02*
D03*
X63151D02*
D03*
X64726D02*
D03*
X66300D02*
D03*
X67875D02*
D03*
X69450D02*
D03*
X71025D02*
D03*
X34804Y76151D02*
D03*
X36379D02*
D03*
X37954D02*
D03*
X39529D02*
D03*
X41104D02*
D03*
X42678D02*
D03*
X44253D02*
D03*
X45828D02*
D03*
X47403D02*
D03*
X48978D02*
D03*
X50552D02*
D03*
X52127D02*
D03*
X53702D02*
D03*
X55277D02*
D03*
X56852D02*
D03*
X58426D02*
D03*
X60001D02*
D03*
X61576D02*
D03*
X63151D02*
D03*
X64726D02*
D03*
X66300D02*
D03*
X67875D02*
D03*
X69450D02*
D03*
X71025D02*
D03*
X75748Y54300D02*
D03*
X77323D02*
D03*
X78898D02*
D03*
X80472D02*
D03*
X82047D02*
D03*
X83622D02*
D03*
X85197D02*
D03*
X86772D02*
D03*
X88346D02*
D03*
X89921D02*
D03*
X91496D02*
D03*
X93071D02*
D03*
X94646D02*
D03*
X96220D02*
D03*
X97795D02*
D03*
X99370D02*
D03*
X100945D02*
D03*
X102520D02*
D03*
X104095D02*
D03*
X105669D02*
D03*
X107244D02*
D03*
X108819D02*
D03*
X110394D02*
D03*
X111969D02*
D03*
X75748Y76151D02*
D03*
X77323D02*
D03*
X78898D02*
D03*
X80472D02*
D03*
X82047D02*
D03*
X83622D02*
D03*
X85197D02*
D03*
X86772D02*
D03*
X88346D02*
D03*
X89921D02*
D03*
X91496D02*
D03*
X93071D02*
D03*
X94646D02*
D03*
X96220D02*
D03*
X97795D02*
D03*
X99370D02*
D03*
X100945D02*
D03*
X102520D02*
D03*
X104095D02*
D03*
X105669D02*
D03*
X107244D02*
D03*
X108819D02*
D03*
X110394D02*
D03*
X111969D02*
D03*
D14*
X113543Y286850D02*
D03*
Y311150D02*
D03*
X111575Y286850D02*
D03*
Y311150D02*
D03*
X109606Y286850D02*
D03*
Y311150D02*
D03*
X107638Y286850D02*
D03*
Y311150D02*
D03*
X105669Y286850D02*
D03*
Y311150D02*
D03*
X103701Y286850D02*
D03*
Y311150D02*
D03*
X101732Y286850D02*
D03*
Y311150D02*
D03*
X99764Y286850D02*
D03*
Y311150D02*
D03*
X97795Y286850D02*
D03*
Y311150D02*
D03*
X95827Y286850D02*
D03*
Y311150D02*
D03*
X93858Y286850D02*
D03*
Y311150D02*
D03*
X91890Y286850D02*
D03*
Y311150D02*
D03*
X89921Y286850D02*
D03*
Y311150D02*
D03*
X87953Y286850D02*
D03*
Y311150D02*
D03*
X85984Y286850D02*
D03*
Y311150D02*
D03*
X84016Y286850D02*
D03*
Y311150D02*
D03*
X82047Y286850D02*
D03*
Y311150D02*
D03*
X80079Y286850D02*
D03*
Y311150D02*
D03*
X78110Y286850D02*
D03*
Y311150D02*
D03*
X76142Y286850D02*
D03*
Y311150D02*
D03*
X74173Y286850D02*
D03*
Y311150D02*
D03*
X72205Y286850D02*
D03*
Y311150D02*
D03*
X70236Y286850D02*
D03*
Y311150D02*
D03*
X68268Y286850D02*
D03*
Y311150D02*
D03*
X66299Y286850D02*
D03*
Y311150D02*
D03*
X64331Y286850D02*
D03*
Y311150D02*
D03*
X62362Y286850D02*
D03*
Y311150D02*
D03*
X60394Y286850D02*
D03*
Y311150D02*
D03*
X58425Y286850D02*
D03*
Y311150D02*
D03*
X56457Y286850D02*
D03*
Y311150D02*
D03*
X109606Y133150D02*
D03*
X105669D02*
D03*
X107638D02*
D03*
X111575D02*
D03*
X99764Y108850D02*
D03*
X97795D02*
D03*
X95827D02*
D03*
X91890D02*
D03*
X89921D02*
D03*
X87953D02*
D03*
X85984D02*
D03*
X82047D02*
D03*
X80079D02*
D03*
X56457D02*
D03*
X58425D02*
D03*
X60394D02*
D03*
X62362D02*
D03*
X66299D02*
D03*
X68268D02*
D03*
X70236D02*
D03*
X72205D02*
D03*
X76142D02*
D03*
X78110D02*
D03*
X101732D02*
D03*
X113543D02*
D03*
Y133150D02*
D03*
X111575Y108850D02*
D03*
X109606D02*
D03*
X107638D02*
D03*
X105669D02*
D03*
X103701D02*
D03*
Y133150D02*
D03*
X101732D02*
D03*
X99764D02*
D03*
X97795D02*
D03*
X95827D02*
D03*
X93858Y108850D02*
D03*
Y133150D02*
D03*
X91890D02*
D03*
X89921D02*
D03*
X87953D02*
D03*
X85984D02*
D03*
X84016Y108850D02*
D03*
Y133150D02*
D03*
X82047D02*
D03*
X80079D02*
D03*
X78110D02*
D03*
X76142D02*
D03*
X74173Y108850D02*
D03*
Y133150D02*
D03*
X72205D02*
D03*
X70236D02*
D03*
X68268D02*
D03*
X66299D02*
D03*
X64331Y108850D02*
D03*
Y133150D02*
D03*
X62362D02*
D03*
X60394D02*
D03*
X58425D02*
D03*
X56457D02*
D03*
D15*
X91250Y95747D02*
D03*
X76781D02*
D03*
Y101653D02*
D03*
X91250D02*
D03*
X68834Y30347D02*
D03*
X54366D02*
D03*
Y36253D02*
D03*
X68834D02*
D03*
X92434D02*
D03*
X77966D02*
D03*
X92434Y30347D02*
D03*
X77966D02*
D03*
X95266Y36253D02*
D03*
X109734D02*
D03*
Y30347D02*
D03*
X95266D02*
D03*
X71565Y95747D02*
D03*
X57096D02*
D03*
Y101653D02*
D03*
X71565D02*
D03*
X110935Y95747D02*
D03*
X96466D02*
D03*
Y101653D02*
D03*
X110935D02*
D03*
D16*
X88937Y95747D02*
D03*
X86968D02*
D03*
X85000D02*
D03*
X83031D02*
D03*
X81063D02*
D03*
X79094D02*
D03*
Y101653D02*
D03*
X81063D02*
D03*
X83031D02*
D03*
X85000D02*
D03*
X86968D02*
D03*
X88937D02*
D03*
X66521Y30347D02*
D03*
X64553D02*
D03*
X62584D02*
D03*
X60616D02*
D03*
X58647D02*
D03*
X56679D02*
D03*
Y36253D02*
D03*
X58647D02*
D03*
X60616D02*
D03*
X62584D02*
D03*
X64553D02*
D03*
X66521D02*
D03*
X90121D02*
D03*
X88153D02*
D03*
X86184D02*
D03*
X84216D02*
D03*
X82247D02*
D03*
X80279D02*
D03*
X90121Y30347D02*
D03*
X88153D02*
D03*
X86184D02*
D03*
X84216D02*
D03*
X82247D02*
D03*
X80279D02*
D03*
X107421Y36253D02*
D03*
X101516D02*
D03*
X99547D02*
D03*
X97579D02*
D03*
X103484D02*
D03*
X105453D02*
D03*
X97579Y30347D02*
D03*
X99547D02*
D03*
X101516D02*
D03*
X103484D02*
D03*
X105453D02*
D03*
X107421D02*
D03*
X69252Y95747D02*
D03*
X67283D02*
D03*
X65315D02*
D03*
X63346D02*
D03*
X61378D02*
D03*
X59409D02*
D03*
Y101653D02*
D03*
X61378D02*
D03*
X63346D02*
D03*
X65315D02*
D03*
X67283D02*
D03*
X69252D02*
D03*
X108622Y95747D02*
D03*
X106653D02*
D03*
X104685D02*
D03*
X102717D02*
D03*
X100748D02*
D03*
X98779D02*
D03*
Y101653D02*
D03*
X100748D02*
D03*
X102717D02*
D03*
X104685D02*
D03*
X106653D02*
D03*
X108622D02*
D03*
D17*
X35077Y22513D02*
D03*
X37045D02*
D03*
X39014D02*
D03*
X40982D02*
D03*
X42951D02*
D03*
X44919D02*
D03*
X46888D02*
D03*
X48856D02*
D03*
X50825D02*
D03*
X52793D02*
D03*
X54762D02*
D03*
X56730D02*
D03*
X58699D02*
D03*
X60667D02*
D03*
X62636D02*
D03*
X64604D02*
D03*
X66573D02*
D03*
X68541D02*
D03*
X70510D02*
D03*
X72478D02*
D03*
X74447D02*
D03*
X76415D02*
D03*
X78384D02*
D03*
X80352D02*
D03*
X82321D02*
D03*
X84289D02*
D03*
X86258D02*
D03*
X88226D02*
D03*
X90195D02*
D03*
X92163D02*
D03*
X94132D02*
D03*
X96100D02*
D03*
X98069D02*
D03*
X100037D02*
D03*
X102006D02*
D03*
X103974D02*
D03*
X105943D02*
D03*
X107911D02*
D03*
X109880D02*
D03*
X111848D02*
D03*
D18*
X28462Y6513D02*
D03*
X118963D02*
D03*
D19*
X23596Y41200D02*
D03*
X18478D02*
D03*
Y48680D02*
D03*
X21037D02*
D03*
X23596D02*
D03*
D24*
X121368Y291000D02*
D03*
X48632D02*
D03*
X121368Y113000D02*
D03*
X48632D02*
D03*
D25*
X174300Y347400D02*
D03*
Y337400D02*
D03*
X164300Y347400D02*
D03*
Y337400D02*
D03*
X154300Y347400D02*
D03*
Y337400D02*
D03*
X144300Y347400D02*
D03*
Y337400D02*
D03*
X134300Y347400D02*
D03*
Y337400D02*
D03*
X124300Y347400D02*
D03*
Y337400D02*
D03*
X114300Y347400D02*
D03*
Y337400D02*
D03*
X104300Y347400D02*
D03*
Y337400D02*
D03*
X94300Y347400D02*
D03*
Y337400D02*
D03*
X84300Y347400D02*
D03*
X221500Y54300D02*
D03*
X231500Y44300D02*
D03*
Y54300D02*
D03*
X241500Y44300D02*
D03*
Y54300D02*
D03*
X251500Y44300D02*
D03*
Y54300D02*
D03*
X261500Y44300D02*
D03*
Y54300D02*
D03*
D26*
X84300Y337400D02*
D03*
X221500Y44300D02*
D03*
D27*
X229100Y33300D02*
D03*
X249100D02*
D03*
X239100D02*
D03*
X209100Y33300D02*
D03*
X199100D02*
D03*
X189100D02*
D03*
X169100Y33300D02*
D03*
X159100D02*
D03*
X149100D02*
D03*
X169100Y43300D02*
D03*
X159100D02*
D03*
X149100D02*
D03*
X209100Y43300D02*
D03*
X199100D02*
D03*
X189100D02*
D03*
D28*
X219100Y33300D02*
D03*
X179100Y33300D02*
D03*
X139100Y33300D02*
D03*
Y43300D02*
D03*
X179100Y43300D02*
D03*
D29*
X12500Y115000D02*
D03*
Y305000D02*
D03*
X327500D02*
D03*
Y115000D02*
D03*
D30*
X17378Y337400D02*
D03*
Y345274D02*
D03*
X25252Y337400D02*
D03*
Y345274D02*
D03*
X33126Y337400D02*
D03*
Y345274D02*
D03*
X41000Y337400D02*
D03*
Y345274D02*
D03*
X9504D02*
D03*
X56748D02*
D03*
Y337400D02*
D03*
X48874Y345274D02*
D03*
Y337400D02*
D03*
X334274Y52874D02*
D03*
Y45000D02*
D03*
X326400Y52874D02*
D03*
Y45000D02*
D03*
X318526Y52874D02*
D03*
Y45000D02*
D03*
X310652Y52874D02*
D03*
X297904D02*
D03*
Y45000D02*
D03*
X290030Y52874D02*
D03*
Y45000D02*
D03*
X282156Y52874D02*
D03*
Y45000D02*
D03*
X274282Y52874D02*
D03*
D31*
X9504Y337400D02*
D03*
X310652Y45000D02*
D03*
X274282D02*
D03*
D32*
X225100Y86000D02*
D03*
X235100D02*
D03*
X245100D02*
D03*
M02*
