M48
;Layer_Color=9474304
;FILE_FORMAT=2:5
INCH,LZ
;TYPE=PLATED
T1F00S00C0.00591
T2F00S00C0.00787
T3F00S00C0.02362
T4F00S00C0.03000
T5F00S00C0.04016
T6F00S00C0.12500
;TYPE=NON_PLATED
T7F00S00C0.04000
%
T01
X0294Y0023
X0306Y0025
X03146Y0027
X03225Y0029
X03301Y00333
X0327Y00915
X0126713Y0055613
X0121613Y0050613
X0111969Y0060617
X0107244Y0060656
X0097795Y0060649
X0089921Y0060621
X0080472Y0060572
X0075748Y0060652
X0071025Y0060675
X00663Y00607
X0056852Y0060648
X0048978Y0060649
Y0069622
X0056852Y0071248
X00663Y00712
X0071025Y0071277
X0075748Y0071252
X0080472Y0071328
X0089921Y0071321
X0097795Y0071305
X0107244Y0071544
X0111969Y0071732
X01026Y00858
Y00913
X00852
Y00858
X00616Y00859
X00443
Y00914
X00336Y00936
X0027Y0087
X0034804Y0060704
X0039529Y0060671
X00443Y00444
Y00383
X00478Y0026356
X0050837Y0018713
X0052806Y0018681
X0068554Y0018572
X0082333Y0018609
X0096113Y0018613
X01025Y00389
Y00444
X00852
Y00389
X00616
Y00444
X00261Y00412
X0018678Y00337
X0016358Y004868
X0013178Y0021322
X0124313Y0032413
X0113543Y0103257
X0103701Y0113001
X0093858Y0104
X0084016Y0113484
X0074173Y01035
X0064331Y0114669
Y0127169
X0082177Y0127162
X0084Y01289
X0084016Y0125323
X0084Y01217
X0082177Y0123485
X0082161Y0119861
X00821Y01163
X0084Y0118023
X0084016Y0137484
X0074173Y01375
X00693Y01489
X00501
X0093858Y0137358
X0103701Y01375
X0113543Y0137457
Y0292
X0103701Y0291799
X0093858
X0084016Y0291783
X0080079Y0291921
X0078Y02945
X0076142Y0297
X0074173Y0291921
X0064331Y0291783
X0056457Y0291709
Y03045
X0064331Y0306
X0074173
X0080079
X0084016
X0093858
X0103701
X0113543
X01025Y0319
X00985Y03175
X0081374Y0328
T02
X0286Y0021
X0302778Y0009579
X0278Y00188
X027Y0017
X0201Y009
Y00925
Y0095
Y00975
Y01
Y01025
Y0105
X01985
X0196
X01935
X0191
X01885
X0186
X01775
Y01025
X0175
X01725
X017
X01675
X0165
Y0105
X01675
X017
X01725
X0175
X00631Y00916
X0039529Y0069271
X00535Y0026562
X0076142Y0316358
X00775Y03185
T03
X02251Y0086
X02351
X02451
T04
X0282156Y0045
X029003
X0297904
Y0052874
X029003
X0282156
X0310652
X0318526
X03264
X0334274
Y0045
X03264
X0318526
X0310652
X0274282
Y0052874
X0056748Y03374
X0048874
X0041
X0033126
X0025252
X0017378
Y0345274
X0025252
X0033126
X0041
X0048874
X0056748
X0009504
Y03374
T05
X01391Y00333
X01491
X01591
X01691
X01791Y00333
Y00433
X01891
Y00333
X01991
Y00433
X02091
Y00333
X02191Y00333
X02291
X02391
X02491
X02515Y00443
X02415
X02315
X02215
Y00543
X02315
X02415
X02515
X02615
Y00443
X01691Y00433
X01591
X01491
X01391
X01343Y03374
X01443
X01543
X01643
X01743
Y03474
X01643
X01543
X01443
X01343
X01243
Y03374
X01143
Y03474
X01043
Y03374
X00943
Y03474
X00843
Y03374
T06
X03275Y0115
X00125
X03275Y0305
X00125
T07
X0048632Y0113
X0121368
Y0291
X0048632
M30
