%FSLAX25Y25*%
%MOIN*%
G70*
G01*
G75*
G04 Layer_Color=255*
%ADD10R,0.03000X0.03000*%
%ADD11R,0.10039X0.08858*%
%ADD12R,0.03000X0.03000*%
%ADD13R,0.01102X0.07087*%
%ADD14R,0.01201X0.05701*%
%ADD15R,0.01673X0.01969*%
%ADD16R,0.00984X0.01969*%
%ADD17R,0.00984X0.04331*%
%ADD18R,0.06693X0.05906*%
%ADD19R,0.01575X0.01969*%
%ADD20C,0.01600*%
%ADD21C,0.01000*%
%ADD22C,0.00800*%
%ADD23C,0.01200*%
%ADD24C,0.03150*%
%ADD25C,0.07087*%
%ADD26R,0.07087X0.07087*%
%ADD27C,0.07087*%
%ADD28R,0.07087X0.07087*%
%ADD29R,0.25000X0.25000*%
%ADD30C,0.06000*%
%ADD31R,0.06000X0.06000*%
%ADD32O,0.04331X0.07087*%
%ADD33C,0.02047*%
%ADD34C,0.02000*%
%ADD35C,0.01800*%
%ADD36C,0.04000*%
%ADD37C,0.05600*%
G04:AMPARAMS|DCode=38|XSize=90.157mil|YSize=90.157mil|CornerRadius=0mil|HoleSize=0mil|Usage=FLASHONLY|Rotation=0.000|XOffset=0mil|YOffset=0mil|HoleType=Round|Shape=Relief|Width=10mil|Gap=15mil|Entries=4|*
%AMTHD38*
7,0,0,0.09016,0.06016,0.01000,45*
%
%ADD38THD38*%
%ADD39C,0.05616*%
%ADD40C,0.05616*%
%ADD41C,0.14100*%
G04:AMPARAMS|DCode=42|XSize=80mil|YSize=80mil|CornerRadius=0mil|HoleSize=0mil|Usage=FLASHONLY|Rotation=0.000|XOffset=0mil|YOffset=0mil|HoleType=Round|Shape=Relief|Width=10mil|Gap=15mil|Entries=4|*
%AMTHD42*
7,0,0,0.08000,0.05000,0.01000,45*
%
%ADD42THD42*%
%ADD43C,0.04600*%
%ADD44C,0.03962*%
G04:AMPARAMS|DCode=45|XSize=73.622mil|YSize=73.622mil|CornerRadius=0mil|HoleSize=0mil|Usage=FLASHONLY|Rotation=0.000|XOffset=0mil|YOffset=0mil|HoleType=Round|Shape=Relief|Width=10mil|Gap=15mil|Entries=4|*
%AMTHD45*
7,0,0,0.07362,0.04362,0.01000,45*
%
%ADD45THD45*%
%ADD46C,0.02387*%
%ADD47C,0.02191*%
D24*
X121368Y291000D02*
D03*
X48632D02*
D03*
X121368Y113000D02*
D03*
X48632D02*
D03*
D25*
X174300Y347400D02*
D03*
Y337400D02*
D03*
X164300Y347400D02*
D03*
Y337400D02*
D03*
X154300Y347400D02*
D03*
Y337400D02*
D03*
X144300Y347400D02*
D03*
Y337400D02*
D03*
X134300Y347400D02*
D03*
Y337400D02*
D03*
X124300Y347400D02*
D03*
Y337400D02*
D03*
X114300Y347400D02*
D03*
Y337400D02*
D03*
X104300Y347400D02*
D03*
Y337400D02*
D03*
X94300Y347400D02*
D03*
Y337400D02*
D03*
X84300Y347400D02*
D03*
X221500Y54300D02*
D03*
X231500Y44300D02*
D03*
Y54300D02*
D03*
X241500Y44300D02*
D03*
Y54300D02*
D03*
X251500Y44300D02*
D03*
Y54300D02*
D03*
X261500Y44300D02*
D03*
Y54300D02*
D03*
D26*
X84300Y337400D02*
D03*
X221500Y44300D02*
D03*
D27*
X229100Y33300D02*
D03*
X249100D02*
D03*
X239100D02*
D03*
X209100Y33300D02*
D03*
X199100D02*
D03*
X189100D02*
D03*
X169100Y33300D02*
D03*
X159100D02*
D03*
X149100D02*
D03*
X169100Y43300D02*
D03*
X159100D02*
D03*
X149100D02*
D03*
X209100Y43300D02*
D03*
X199100D02*
D03*
X189100D02*
D03*
D28*
X219100Y33300D02*
D03*
X179100Y33300D02*
D03*
X139100Y33300D02*
D03*
Y43300D02*
D03*
X179100Y43300D02*
D03*
D29*
X12500Y115000D02*
D03*
Y305000D02*
D03*
X327500D02*
D03*
Y115000D02*
D03*
D30*
X17378Y337400D02*
D03*
Y345274D02*
D03*
X25252Y337400D02*
D03*
Y345274D02*
D03*
X33126Y337400D02*
D03*
Y345274D02*
D03*
X41000Y337400D02*
D03*
Y345274D02*
D03*
X9504D02*
D03*
X56748D02*
D03*
Y337400D02*
D03*
X48874Y345274D02*
D03*
Y337400D02*
D03*
X334274Y52874D02*
D03*
Y45000D02*
D03*
X326400Y52874D02*
D03*
Y45000D02*
D03*
X318526Y52874D02*
D03*
Y45000D02*
D03*
X310652Y52874D02*
D03*
X297904D02*
D03*
Y45000D02*
D03*
X290030Y52874D02*
D03*
Y45000D02*
D03*
X282156Y52874D02*
D03*
Y45000D02*
D03*
X274282Y52874D02*
D03*
D31*
X9504Y337400D02*
D03*
X310652Y45000D02*
D03*
X274282D02*
D03*
D32*
X225100Y86000D02*
D03*
X235100D02*
D03*
X245100D02*
D03*
M02*
